<svg width="58" height="107" viewBox="0 0 58 107" fill="none" xmlns="http://www.w3.org/2000/svg">
<path d="M0 10.0098L11 3.00977V10.0098H0Z" fill="#991011"/>
<g filter="url(#filter0_d_4001_1452)">
<path d="M8 6.01074C8 3.80161 9.79086 2.01074 12 2.01074H52C54.2091 2.01074 56 3.8016 56 6.01074V98.2737C56 99.8711 54.2197 100.824 52.8906 99.9378L34.2188 87.4899C32.8752 86.5942 31.1248 86.5942 29.7812 87.4899L11.1094 99.9378C9.78029 100.824 8 99.8711 8 98.2737V6.01074Z" fill="#014D4E"/>
<path d="M8 6.01074C8 3.80161 9.79086 2.01074 12 2.01074H52C54.2091 2.01074 56 3.8016 56 6.01074V98.2737C56 99.8711 54.2197 100.824 52.8906 99.9378L34.2188 87.4899C32.8752 86.5942 31.1248 86.5942 29.7812 87.4899L11.1094 99.9378C9.78029 100.824 8 99.8711 8 98.2737V6.01074Z" fill="#CB1517"/>
</g>
<path d="M31.4501 57.0078C30.7888 57.0078 30.0635 57.0185 29.2741 57.0398C28.4848 57.0825 27.7061 57.1358 26.9381 57.1998L26.7141 56.8798C27.0128 56.3678 27.4395 55.5998 27.9941 54.5758C28.5488 53.5305 29.1461 52.3785 29.7861 51.1198C30.4261 49.8611 31.0768 48.5491 31.7381 47.1838C32.3995 45.8185 32.9968 44.5491 33.5301 43.3758C34.0635 42.2025 34.5008 41.1998 34.8421 40.3678C35.1835 39.5145 35.3541 38.9598 35.3541 38.7038L35.1941 38.5758H31.5141C30.4475 38.5758 29.5835 38.5865 28.9221 38.6078C28.2608 38.6291 27.7381 38.7038 27.3541 38.8318C26.9701 38.9385 26.6928 39.1091 26.5221 39.3438C26.3515 39.5571 26.2341 39.8558 26.1701 40.2398L25.9781 40.3998H24.7621L24.6021 40.1758L25.0821 36.0798L25.3381 35.8238C28.0688 35.9518 30.2341 36.0265 31.8341 36.0478C33.4555 36.0691 34.5435 36.0798 35.0981 36.0798H40.1221L40.2821 36.1758L40.1221 36.9758C39.9728 37.1465 39.7381 37.5091 39.4181 38.0638C39.1195 38.6185 38.7781 39.2905 38.3941 40.0798C38.0101 40.8478 37.5941 41.7118 37.1461 42.6718C36.6981 43.6105 36.2501 44.5811 35.8021 45.5838C35.3541 46.5651 34.9168 47.5251 34.4901 48.4638C34.0848 49.4025 33.7221 50.2558 33.4021 51.0238C33.0181 51.9411 32.6661 52.8585 32.3461 53.7758C32.0475 54.6931 31.7915 55.6958 31.5781 56.7838L31.4501 57.0078Z" fill="url(#paint0_linear_4001_1452)"/>
<path d="M31.4501 57.0078C30.7888 57.0078 30.0635 57.0185 29.2741 57.0398C28.4848 57.0825 27.7061 57.1358 26.9381 57.1998L26.7141 56.8798C27.0128 56.3678 27.4395 55.5998 27.9941 54.5758C28.5488 53.5305 29.1461 52.3785 29.7861 51.1198C30.4261 49.8611 31.0768 48.5491 31.7381 47.1838C32.3995 45.8185 32.9968 44.5491 33.5301 43.3758C34.0635 42.2025 34.5008 41.1998 34.8421 40.3678C35.1835 39.5145 35.3541 38.9598 35.3541 38.7038L35.1941 38.5758H31.5141C30.4475 38.5758 29.5835 38.5865 28.9221 38.6078C28.2608 38.6291 27.7381 38.7038 27.3541 38.8318C26.9701 38.9385 26.6928 39.1091 26.5221 39.3438C26.3515 39.5571 26.2341 39.8558 26.1701 40.2398L25.9781 40.3998H24.7621L24.6021 40.1758L25.0821 36.0798L25.3381 35.8238C28.0688 35.9518 30.2341 36.0265 31.8341 36.0478C33.4555 36.0691 34.5435 36.0798 35.0981 36.0798H40.1221L40.2821 36.1758L40.1221 36.9758C39.9728 37.1465 39.7381 37.5091 39.4181 38.0638C39.1195 38.6185 38.7781 39.2905 38.3941 40.0798C38.0101 40.8478 37.5941 41.7118 37.1461 42.6718C36.6981 43.6105 36.2501 44.5811 35.8021 45.5838C35.3541 46.5651 34.9168 47.5251 34.4901 48.4638C34.0848 49.4025 33.7221 50.2558 33.4021 51.0238C33.0181 51.9411 32.6661 52.8585 32.3461 53.7758C32.0475 54.6931 31.7915 55.6958 31.5781 56.7838L31.4501 57.0078Z" fill="white" fill-opacity="0.2"/>
<defs>
<filter id="filter0_d_4001_1452" x="2" y="0.0107422" width="56" height="106.266" filterUnits="userSpaceOnUse" color-interpolation-filters="sRGB">
<feFlood flood-opacity="0" result="BackgroundImageFix"/>
<feColorMatrix in="SourceAlpha" type="matrix" values="0 0 0 0 0 0 0 0 0 0 0 0 0 0 0 0 0 0 127 0" result="hardAlpha"/>
<feOffset dx="-2" dy="2"/>
<feGaussianBlur stdDeviation="2"/>
<feComposite in2="hardAlpha" operator="out"/>
<feColorMatrix type="matrix" values="0 0 0 0 0 0 0 0 0 0 0 0 0 0 0 0 0 0 0.25 0"/>
<feBlend mode="normal" in2="BackgroundImageFix" result="effect1_dropShadow_4001_1452"/>
<feBlend mode="normal" in="SourceGraphic" in2="effect1_dropShadow_4001_1452" result="shape"/>
</filter>
<linearGradient id="paint0_linear_4001_1452" x1="43.9" y1="35.0078" x2="34.695" y2="61.49" gradientUnits="userSpaceOnUse">
<stop stop-color="#F4D455"/>
<stop offset="1" stop-color="white"/>
</linearGradient>
</defs>
</svg>
