<svg width="58" height="107" viewBox="0 0 58 107" fill="none" xmlns="http://www.w3.org/2000/svg">
<path d="M0 10.0078L11 3.00781V10.0078H0Z" fill="#991011"/>
<g filter="url(#filter0_d_4001_116)">
<path d="M8 6.00879C8 3.79965 9.79086 2.00879 12 2.00879H52C54.2091 2.00879 56 3.79965 56 6.00879V98.2718C56 99.8691 54.2197 100.822 52.8906 99.9359L34.2188 87.488C32.8752 86.5923 31.1248 86.5923 29.7812 87.488L11.1094 99.9359C9.78029 100.822 8 99.8691 8 98.2718V6.00879Z" fill="#014D4E"/>
<path d="M8 6.00879C8 3.79965 9.79086 2.00879 12 2.00879H52C54.2091 2.00879 56 3.79965 56 6.00879V98.2718C56 99.8691 54.2197 100.822 52.8906 99.9359L34.2188 87.488C32.8752 86.5923 31.1248 86.5923 29.7812 87.488L11.1094 99.9359C9.78029 100.822 8 99.8691 8 98.2718V6.00879Z" fill="#CB1517"/>
</g>
<path d="M28.4355 45.8059C28.8408 45.1232 29.4488 44.6112 30.2595 44.2699C31.0702 43.9285 31.9768 43.7579 32.9795 43.7579C34.0675 43.7579 35.0062 43.9499 35.7955 44.3339C36.6062 44.7179 37.2675 45.2299 37.7795 45.8699C38.3128 46.5099 38.7075 47.2352 38.9635 48.0459C39.2195 48.8352 39.3475 49.6459 39.3475 50.4779C39.3475 51.3099 39.2195 52.1312 38.9635 52.9419C38.7075 53.7525 38.3022 54.4885 37.7475 55.1499C37.1928 55.8112 36.4675 56.3445 35.5715 56.7499C34.6968 57.1552 33.6195 57.3579 32.3395 57.3579C31.0168 57.3579 29.8968 57.1232 28.9795 56.6539C28.0622 56.1845 27.3155 55.5232 26.7395 54.6699C26.1848 53.8165 25.7795 52.7819 25.5235 51.5659C25.2675 50.3499 25.1395 48.9845 25.1395 47.4699C25.1395 46.6379 25.1822 45.7739 25.2675 44.8779C25.3528 43.9605 25.5022 43.0645 25.7155 42.1899C25.9288 41.3152 26.2062 40.4939 26.5475 39.7259C26.9102 38.9365 27.3688 38.2539 27.9235 37.6779C28.4782 37.0805 29.1288 36.6112 29.8755 36.2699C30.6435 35.9072 31.5395 35.7259 32.5635 35.7259C32.9475 35.7259 33.3848 35.7579 33.8755 35.8219C34.3875 35.8645 34.8995 35.9499 35.4115 36.0779C35.9448 36.2059 36.4568 36.3765 36.9475 36.5899C37.4382 36.8032 37.8542 37.0592 38.1955 37.3579L37.7155 40.0139H36.4995C36.3075 39.7152 36.0515 39.4592 35.7315 39.2459C35.4328 39.0325 35.1128 38.8619 34.7715 38.7339C34.4302 38.6059 34.0782 38.5205 33.7155 38.4779C33.3742 38.4139 33.0648 38.3819 32.7875 38.3819C32.0195 38.3819 31.3475 38.5739 30.7715 38.9579C30.1955 39.3205 29.7262 39.8219 29.3635 40.4619C29.0008 41.0805 28.7235 41.8059 28.5315 42.6379C28.3608 43.4699 28.2755 44.3339 28.2755 45.2299C28.2755 45.3152 28.2755 45.4005 28.2755 45.4859C28.2755 45.5712 28.2862 45.6672 28.3075 45.7739L28.4355 45.8059ZM32.2755 46.6059C31.1022 46.6059 30.2275 46.9579 29.6515 47.6619C29.0968 48.3659 28.8195 49.2939 28.8195 50.4459C28.8195 50.9365 28.8728 51.4379 28.9795 51.9499C29.0862 52.4619 29.2782 52.9312 29.5555 53.3579C29.8328 53.7845 30.1848 54.1365 30.6115 54.4139C31.0595 54.6912 31.6248 54.8299 32.3075 54.8299C33.4595 54.8299 34.3342 54.4459 34.9315 53.6779C35.5288 52.9099 35.8275 51.9179 35.8275 50.7019C35.8275 50.2539 35.7742 49.7952 35.6675 49.3259C35.5822 48.8352 35.4008 48.3979 35.1235 48.0139C34.8675 47.6085 34.5048 47.2779 34.0355 47.0219C33.5875 46.7445 33.0008 46.6059 32.2755 46.6059Z" fill="url(#paint0_linear_4001_116)"/>
<path d="M28.4355 45.8059C28.8408 45.1232 29.4488 44.6112 30.2595 44.2699C31.0702 43.9285 31.9768 43.7579 32.9795 43.7579C34.0675 43.7579 35.0062 43.9499 35.7955 44.3339C36.6062 44.7179 37.2675 45.2299 37.7795 45.8699C38.3128 46.5099 38.7075 47.2352 38.9635 48.0459C39.2195 48.8352 39.3475 49.6459 39.3475 50.4779C39.3475 51.3099 39.2195 52.1312 38.9635 52.9419C38.7075 53.7525 38.3022 54.4885 37.7475 55.1499C37.1928 55.8112 36.4675 56.3445 35.5715 56.7499C34.6968 57.1552 33.6195 57.3579 32.3395 57.3579C31.0168 57.3579 29.8968 57.1232 28.9795 56.6539C28.0622 56.1845 27.3155 55.5232 26.7395 54.6699C26.1848 53.8165 25.7795 52.7819 25.5235 51.5659C25.2675 50.3499 25.1395 48.9845 25.1395 47.4699C25.1395 46.6379 25.1822 45.7739 25.2675 44.8779C25.3528 43.9605 25.5022 43.0645 25.7155 42.1899C25.9288 41.3152 26.2062 40.4939 26.5475 39.7259C26.9102 38.9365 27.3688 38.2539 27.9235 37.6779C28.4782 37.0805 29.1288 36.6112 29.8755 36.2699C30.6435 35.9072 31.5395 35.7259 32.5635 35.7259C32.9475 35.7259 33.3848 35.7579 33.8755 35.8219C34.3875 35.8645 34.8995 35.9499 35.4115 36.0779C35.9448 36.2059 36.4568 36.3765 36.9475 36.5899C37.4382 36.8032 37.8542 37.0592 38.1955 37.3579L37.7155 40.0139H36.4995C36.3075 39.7152 36.0515 39.4592 35.7315 39.2459C35.4328 39.0325 35.1128 38.8619 34.7715 38.7339C34.4302 38.6059 34.0782 38.5205 33.7155 38.4779C33.3742 38.4139 33.0648 38.3819 32.7875 38.3819C32.0195 38.3819 31.3475 38.5739 30.7715 38.9579C30.1955 39.3205 29.7262 39.8219 29.3635 40.4619C29.0008 41.0805 28.7235 41.8059 28.5315 42.6379C28.3608 43.4699 28.2755 44.3339 28.2755 45.2299C28.2755 45.3152 28.2755 45.4005 28.2755 45.4859C28.2755 45.5712 28.2862 45.6672 28.3075 45.7739L28.4355 45.8059ZM32.2755 46.6059C31.1022 46.6059 30.2275 46.9579 29.6515 47.6619C29.0968 48.3659 28.8195 49.2939 28.8195 50.4459C28.8195 50.9365 28.8728 51.4379 28.9795 51.9499C29.0862 52.4619 29.2782 52.9312 29.5555 53.3579C29.8328 53.7845 30.1848 54.1365 30.6115 54.4139C31.0595 54.6912 31.6248 54.8299 32.3075 54.8299C33.4595 54.8299 34.3342 54.4459 34.9315 53.6779C35.5288 52.9099 35.8275 51.9179 35.8275 50.7019C35.8275 50.2539 35.7742 49.7952 35.6675 49.3259C35.5822 48.8352 35.4008 48.3979 35.1235 48.0139C34.8675 47.6085 34.5048 47.2779 34.0355 47.0219C33.5875 46.7445 33.0008 46.6059 32.2755 46.6059Z" fill="white" fill-opacity="0.2"/>
<defs>
<filter id="filter0_d_4001_116" x="2" y="0.00878906" width="56" height="106.266" filterUnits="userSpaceOnUse" color-interpolation-filters="sRGB">
<feFlood flood-opacity="0" result="BackgroundImageFix"/>
<feColorMatrix in="SourceAlpha" type="matrix" values="0 0 0 0 0 0 0 0 0 0 0 0 0 0 0 0 0 0 127 0" result="hardAlpha"/>
<feOffset dx="-2" dy="2"/>
<feGaussianBlur stdDeviation="2"/>
<feComposite in2="hardAlpha" operator="out"/>
<feColorMatrix type="matrix" values="0 0 0 0 0 0 0 0 0 0 0 0 0 0 0 0 0 0 0.25 0"/>
<feBlend mode="normal" in2="BackgroundImageFix" result="effect1_dropShadow_4001_116"/>
<feBlend mode="normal" in="SourceGraphic" in2="effect1_dropShadow_4001_116" result="shape"/>
</filter>
<linearGradient id="paint0_linear_4001_116" x1="43.9" y1="35.0059" x2="34.695" y2="61.4881" gradientUnits="userSpaceOnUse">
<stop stop-color="#F4D455"/>
<stop offset="1" stop-color="white"/>
</linearGradient>
</defs>
</svg>
