<svg width="58" height="107" viewBox="0 0 58 107" fill="none" xmlns="http://www.w3.org/2000/svg">
<path d="M0 10.0112L11 3.01123V10.0112H0Z" fill="#991011"/>
<g filter="url(#filter0_d_4001_1475)">
<path d="M8 6.01221C8 3.80307 9.79086 2.01221 12 2.01221H52C54.2091 2.01221 56 3.80307 56 6.01221V98.2752C56 99.8726 54.2197 100.825 52.8906 99.9393L34.2188 87.4914C32.8752 86.5957 31.1248 86.5957 29.7812 87.4914L11.1094 99.9393C9.78029 100.825 8 99.8726 8 98.2752V6.01221Z" fill="#014D4E"/>
<path d="M8 6.01221C8 3.80307 9.79086 2.01221 12 2.01221H52C54.2091 2.01221 56 3.80307 56 6.01221V98.2752C56 99.8726 54.2197 100.825 52.8906 99.9393L34.2188 87.4914C32.8752 86.5957 31.1248 86.5957 29.7812 87.4914L11.1094 99.9393C9.78029 100.825 8 99.8726 8 98.2752V6.01221Z" fill="#CB1517"/>
</g>
<path d="M31.9154 35.7293C32.8114 35.7293 33.6434 35.8466 34.4114 36.0813C35.2007 36.2946 35.8834 36.6253 36.4594 37.0733C37.0354 37.5213 37.4834 38.0759 37.8034 38.7373C38.1447 39.3986 38.3154 40.1559 38.3154 41.0093C38.3154 41.6493 38.2407 42.2039 38.0914 42.6733C37.9634 43.1426 37.782 43.5479 37.5474 43.8893C37.3127 44.2093 37.046 44.4759 36.7474 44.6893C36.4487 44.9026 36.15 45.0733 35.8514 45.2013L35.5314 45.3293C36.214 45.5426 36.8007 45.8519 37.2914 46.2573C37.782 46.6626 38.1767 47.1213 38.4754 47.6333C38.7954 48.1453 39.03 48.6999 39.1794 49.2973C39.3287 49.8946 39.4034 50.4813 39.4034 51.0573C39.4034 51.8253 39.2754 52.5933 39.0194 53.3613C38.7847 54.1079 38.3794 54.7799 37.8034 55.3773C37.2274 55.9533 36.4594 56.4333 35.4994 56.8173C34.5607 57.1799 33.3874 57.3613 31.9794 57.3613C30.5927 57.3613 29.43 57.1799 28.4914 56.8173C27.5527 56.4546 26.7954 55.9746 26.2194 55.3773C25.6434 54.7799 25.2274 54.1079 24.9714 53.3613C24.7367 52.5933 24.6194 51.8253 24.6194 51.0573C24.6194 49.7559 24.9074 48.5933 25.4834 47.5693C26.0594 46.5239 26.9554 45.7773 28.1714 45.3293V45.2013C27.51 44.9666 26.934 44.5186 26.4434 43.8573C25.9527 43.1959 25.7074 42.2359 25.7074 40.9773C25.7074 40.1453 25.8567 39.4093 26.1554 38.7693C26.454 38.1079 26.87 37.5533 27.4034 37.1053C27.958 36.6573 28.6194 36.3159 29.3874 36.0813C30.1554 35.8466 30.998 35.7293 31.9154 35.7293ZM31.9474 46.7693C31.2647 46.7693 30.6887 46.9186 30.2194 47.2173C29.7714 47.4946 29.398 47.8466 29.0994 48.2733C28.822 48.6999 28.6194 49.1799 28.4914 49.7133C28.3847 50.2466 28.3314 50.7479 28.3314 51.2173C28.3314 51.7933 28.438 52.3053 28.6514 52.7533C28.8647 53.1799 29.142 53.5426 29.4834 53.8413C29.846 54.1186 30.2514 54.3319 30.6994 54.4813C31.1474 54.6093 31.606 54.6733 32.0754 54.6733C32.5234 54.6733 32.9607 54.6093 33.3874 54.4813C33.8354 54.3319 34.23 54.1186 34.5714 53.8413C34.9127 53.5426 35.1794 53.1906 35.3714 52.7853C35.5847 52.3586 35.6914 51.8573 35.6914 51.2813C35.6914 50.7693 35.6167 50.2466 35.4674 49.7133C35.3394 49.1799 35.126 48.6999 34.8274 48.2733C34.5287 47.8253 34.1447 47.4626 33.6754 47.1853C33.206 46.9079 32.63 46.7693 31.9474 46.7693ZM34.6034 40.8813C34.6034 40.0279 34.326 39.3879 33.7714 38.9613C33.238 38.5346 32.6407 38.3213 31.9794 38.3213C31.3394 38.3213 30.7527 38.5346 30.2194 38.9613C29.686 39.3666 29.4194 39.9853 29.4194 40.8173C29.4194 41.9479 29.654 42.8013 30.1234 43.3773C30.5927 43.9533 31.222 44.2413 32.0114 44.2413C32.3954 44.2413 32.7367 44.1559 33.0354 43.9853C33.3554 43.8146 33.6327 43.5799 33.8674 43.2813C34.102 42.9613 34.2834 42.5986 34.4114 42.1933C34.5394 41.7879 34.6034 41.3506 34.6034 40.8813Z" fill="url(#paint0_linear_4001_1475)"/>
<path d="M31.9154 35.7293C32.8114 35.7293 33.6434 35.8466 34.4114 36.0813C35.2007 36.2946 35.8834 36.6253 36.4594 37.0733C37.0354 37.5213 37.4834 38.0759 37.8034 38.7373C38.1447 39.3986 38.3154 40.1559 38.3154 41.0093C38.3154 41.6493 38.2407 42.2039 38.0914 42.6733C37.9634 43.1426 37.782 43.5479 37.5474 43.8893C37.3127 44.2093 37.046 44.4759 36.7474 44.6893C36.4487 44.9026 36.15 45.0733 35.8514 45.2013L35.5314 45.3293C36.214 45.5426 36.8007 45.8519 37.2914 46.2573C37.782 46.6626 38.1767 47.1213 38.4754 47.6333C38.7954 48.1453 39.03 48.6999 39.1794 49.2973C39.3287 49.8946 39.4034 50.4813 39.4034 51.0573C39.4034 51.8253 39.2754 52.5933 39.0194 53.3613C38.7847 54.1079 38.3794 54.7799 37.8034 55.3773C37.2274 55.9533 36.4594 56.4333 35.4994 56.8173C34.5607 57.1799 33.3874 57.3613 31.9794 57.3613C30.5927 57.3613 29.43 57.1799 28.4914 56.8173C27.5527 56.4546 26.7954 55.9746 26.2194 55.3773C25.6434 54.7799 25.2274 54.1079 24.9714 53.3613C24.7367 52.5933 24.6194 51.8253 24.6194 51.0573C24.6194 49.7559 24.9074 48.5933 25.4834 47.5693C26.0594 46.5239 26.9554 45.7773 28.1714 45.3293V45.2013C27.51 44.9666 26.934 44.5186 26.4434 43.8573C25.9527 43.1959 25.7074 42.2359 25.7074 40.9773C25.7074 40.1453 25.8567 39.4093 26.1554 38.7693C26.454 38.1079 26.87 37.5533 27.4034 37.1053C27.958 36.6573 28.6194 36.3159 29.3874 36.0813C30.1554 35.8466 30.998 35.7293 31.9154 35.7293ZM31.9474 46.7693C31.2647 46.7693 30.6887 46.9186 30.2194 47.2173C29.7714 47.4946 29.398 47.8466 29.0994 48.2733C28.822 48.6999 28.6194 49.1799 28.4914 49.7133C28.3847 50.2466 28.3314 50.7479 28.3314 51.2173C28.3314 51.7933 28.438 52.3053 28.6514 52.7533C28.8647 53.1799 29.142 53.5426 29.4834 53.8413C29.846 54.1186 30.2514 54.3319 30.6994 54.4813C31.1474 54.6093 31.606 54.6733 32.0754 54.6733C32.5234 54.6733 32.9607 54.6093 33.3874 54.4813C33.8354 54.3319 34.23 54.1186 34.5714 53.8413C34.9127 53.5426 35.1794 53.1906 35.3714 52.7853C35.5847 52.3586 35.6914 51.8573 35.6914 51.2813C35.6914 50.7693 35.6167 50.2466 35.4674 49.7133C35.3394 49.1799 35.126 48.6999 34.8274 48.2733C34.5287 47.8253 34.1447 47.4626 33.6754 47.1853C33.206 46.9079 32.63 46.7693 31.9474 46.7693ZM34.6034 40.8813C34.6034 40.0279 34.326 39.3879 33.7714 38.9613C33.238 38.5346 32.6407 38.3213 31.9794 38.3213C31.3394 38.3213 30.7527 38.5346 30.2194 38.9613C29.686 39.3666 29.4194 39.9853 29.4194 40.8173C29.4194 41.9479 29.654 42.8013 30.1234 43.3773C30.5927 43.9533 31.222 44.2413 32.0114 44.2413C32.3954 44.2413 32.7367 44.1559 33.0354 43.9853C33.3554 43.8146 33.6327 43.5799 33.8674 43.2813C34.102 42.9613 34.2834 42.5986 34.4114 42.1933C34.5394 41.7879 34.6034 41.3506 34.6034 40.8813Z" fill="white" fill-opacity="0.2"/>
<defs>
<filter id="filter0_d_4001_1475" x="2" y="0.012207" width="56" height="106.266" filterUnits="userSpaceOnUse" color-interpolation-filters="sRGB">
<feFlood flood-opacity="0" result="BackgroundImageFix"/>
<feColorMatrix in="SourceAlpha" type="matrix" values="0 0 0 0 0 0 0 0 0 0 0 0 0 0 0 0 0 0 127 0" result="hardAlpha"/>
<feOffset dx="-2" dy="2"/>
<feGaussianBlur stdDeviation="2"/>
<feComposite in2="hardAlpha" operator="out"/>
<feColorMatrix type="matrix" values="0 0 0 0 0 0 0 0 0 0 0 0 0 0 0 0 0 0 0.25 0"/>
<feBlend mode="normal" in2="BackgroundImageFix" result="effect1_dropShadow_4001_1475"/>
<feBlend mode="normal" in="SourceGraphic" in2="effect1_dropShadow_4001_1475" result="shape"/>
</filter>
<linearGradient id="paint0_linear_4001_1475" x1="43.9" y1="35.0093" x2="34.695" y2="61.4915" gradientUnits="userSpaceOnUse">
<stop stop-color="#F4D455"/>
<stop offset="1" stop-color="white"/>
</linearGradient>
</defs>
</svg>
