<svg width="58" height="107" viewBox="0 0 58 107" fill="none" xmlns="http://www.w3.org/2000/svg">
<path d="M0 10.0063L11 3.00635V10.0063H0Z" fill="#991011"/>
<g filter="url(#filter0_d_4001_1429)">
<path d="M8 6.00733C8 3.79819 9.79086 2.00732 12 2.00732H52C54.2091 2.00732 56 3.79819 56 6.00732V98.2703C56 99.8677 54.2197 100.82 52.8906 99.9344L34.2188 87.4865C32.8752 86.5908 31.1248 86.5908 29.7812 87.4865L11.1094 99.9344C9.78029 100.82 8 99.8677 8 98.2703V6.00733Z" fill="#014D4E"/>
<path d="M8 6.00733C8 3.79819 9.79086 2.00732 12 2.00732H52C54.2091 2.00732 56 3.79819 56 6.00732V98.2703C56 99.8677 54.2197 100.82 52.8906 99.9344L34.2188 87.4865C32.8752 86.5908 31.1248 86.5908 29.7812 87.4865L11.1094 99.9344C9.78029 100.82 8 99.8677 8 98.2703V6.00733Z" fill="#CB1517"/>
</g>
<path d="M35.4695 50.5724C35.4695 49.8684 35.3522 49.3031 35.1175 48.8764C34.9042 48.4284 34.6162 48.0764 34.2535 47.8204C33.9122 47.5644 33.5175 47.3937 33.0695 47.3084C32.6215 47.2017 32.1735 47.1484 31.7255 47.1484C30.9575 47.1484 30.2002 47.2337 29.4535 47.4044C28.7068 47.5751 28.0242 47.8417 27.4055 48.2044H27.0855L25.9015 46.7644L25.8375 46.5404L26.8615 36.3324L27.0535 36.0764H30.2535C30.8722 36.0764 31.7682 36.0657 32.9415 36.0444C34.1148 36.0017 35.4802 35.9271 37.0375 35.8204L37.3255 36.0764L37.8055 40.1724L37.6135 40.3964H36.3975L36.2055 40.2364C36.1202 39.8524 36.0135 39.5537 35.8855 39.3404C35.7788 39.1057 35.5548 38.9351 35.2135 38.8284C34.8722 38.7004 34.3815 38.6257 33.7415 38.6044C33.1015 38.5831 32.2268 38.5724 31.1175 38.5724H30.1575C30.0295 38.5724 29.9655 38.6257 29.9655 38.7324L29.3255 44.9404C29.7308 44.7271 30.1895 44.5671 30.7015 44.4604C31.2348 44.3537 31.7788 44.3004 32.3335 44.3004C33.2082 44.3004 34.0508 44.4071 34.8615 44.6204C35.6722 44.8124 36.3868 45.1431 37.0055 45.6124C37.6455 46.0604 38.1468 46.6684 38.5095 47.4364C38.8935 48.2044 39.0855 49.1644 39.0855 50.3164C39.0855 51.4471 38.8935 52.4497 38.5095 53.3244C38.1255 54.1991 37.5815 54.9351 36.8775 55.5324C36.1948 56.1297 35.3735 56.5884 34.4135 56.9084C33.4535 57.2071 32.3975 57.3564 31.2455 57.3564C29.6668 57.3564 28.3868 57.1217 27.4055 56.6524C26.4455 56.1831 25.6562 55.5537 25.0375 54.7644L25.0055 54.4444L25.3575 51.5324H27.1495L27.2455 51.6604C27.2882 52.5351 27.6615 53.2604 28.3655 53.8364C29.0908 54.4124 30.1575 54.7004 31.5655 54.7004C32.2908 54.7004 32.8988 54.5937 33.3895 54.3804C33.9015 54.1457 34.3068 53.8364 34.6055 53.4524C34.9042 53.0684 35.1175 52.6311 35.2455 52.1404C35.3948 51.6284 35.4695 51.1057 35.4695 50.5724Z" fill="url(#paint0_linear_4001_1429)"/>
<path d="M35.4695 50.5724C35.4695 49.8684 35.3522 49.3031 35.1175 48.8764C34.9042 48.4284 34.6162 48.0764 34.2535 47.8204C33.9122 47.5644 33.5175 47.3937 33.0695 47.3084C32.6215 47.2017 32.1735 47.1484 31.7255 47.1484C30.9575 47.1484 30.2002 47.2337 29.4535 47.4044C28.7068 47.5751 28.0242 47.8417 27.4055 48.2044H27.0855L25.9015 46.7644L25.8375 46.5404L26.8615 36.3324L27.0535 36.0764H30.2535C30.8722 36.0764 31.7682 36.0657 32.9415 36.0444C34.1148 36.0017 35.4802 35.9271 37.0375 35.8204L37.3255 36.0764L37.8055 40.1724L37.6135 40.3964H36.3975L36.2055 40.2364C36.1202 39.8524 36.0135 39.5537 35.8855 39.3404C35.7788 39.1057 35.5548 38.9351 35.2135 38.8284C34.8722 38.7004 34.3815 38.6257 33.7415 38.6044C33.1015 38.5831 32.2268 38.5724 31.1175 38.5724H30.1575C30.0295 38.5724 29.9655 38.6257 29.9655 38.7324L29.3255 44.9404C29.7308 44.7271 30.1895 44.5671 30.7015 44.4604C31.2348 44.3537 31.7788 44.3004 32.3335 44.3004C33.2082 44.3004 34.0508 44.4071 34.8615 44.6204C35.6722 44.8124 36.3868 45.1431 37.0055 45.6124C37.6455 46.0604 38.1468 46.6684 38.5095 47.4364C38.8935 48.2044 39.0855 49.1644 39.0855 50.3164C39.0855 51.4471 38.8935 52.4497 38.5095 53.3244C38.1255 54.1991 37.5815 54.9351 36.8775 55.5324C36.1948 56.1297 35.3735 56.5884 34.4135 56.9084C33.4535 57.2071 32.3975 57.3564 31.2455 57.3564C29.6668 57.3564 28.3868 57.1217 27.4055 56.6524C26.4455 56.1831 25.6562 55.5537 25.0375 54.7644L25.0055 54.4444L25.3575 51.5324H27.1495L27.2455 51.6604C27.2882 52.5351 27.6615 53.2604 28.3655 53.8364C29.0908 54.4124 30.1575 54.7004 31.5655 54.7004C32.2908 54.7004 32.8988 54.5937 33.3895 54.3804C33.9015 54.1457 34.3068 53.8364 34.6055 53.4524C34.9042 53.0684 35.1175 52.6311 35.2455 52.1404C35.3948 51.6284 35.4695 51.1057 35.4695 50.5724Z" fill="white" fill-opacity="0.2"/>
<defs>
<filter id="filter0_d_4001_1429" x="2" y="0.00732422" width="56" height="106.266" filterUnits="userSpaceOnUse" color-interpolation-filters="sRGB">
<feFlood flood-opacity="0" result="BackgroundImageFix"/>
<feColorMatrix in="SourceAlpha" type="matrix" values="0 0 0 0 0 0 0 0 0 0 0 0 0 0 0 0 0 0 127 0" result="hardAlpha"/>
<feOffset dx="-2" dy="2"/>
<feGaussianBlur stdDeviation="2"/>
<feComposite in2="hardAlpha" operator="out"/>
<feColorMatrix type="matrix" values="0 0 0 0 0 0 0 0 0 0 0 0 0 0 0 0 0 0 0.25 0"/>
<feBlend mode="normal" in2="BackgroundImageFix" result="effect1_dropShadow_4001_1429"/>
<feBlend mode="normal" in="SourceGraphic" in2="effect1_dropShadow_4001_1429" result="shape"/>
</filter>
<linearGradient id="paint0_linear_4001_1429" x1="43.9" y1="35.0044" x2="34.695" y2="61.4866" gradientUnits="userSpaceOnUse">
<stop stop-color="#F4D455"/>
<stop offset="1" stop-color="white"/>
</linearGradient>
</defs>
</svg>
