<svg width="58" height="107" viewBox="0 0 58 107" fill="none" xmlns="http://www.w3.org/2000/svg">
<path d="M0 10.002L11 3.00195V10.002H0Z" fill="#991011"/>
<g filter="url(#filter0_d_4001_1498)">
<path d="M8 6.00293C8 3.79379 9.79086 2.00293 12 2.00293H52C54.2091 2.00293 56 3.79379 56 6.00293V98.2659C56 99.8633 54.2197 100.816 52.8906 99.93L34.2188 87.4821C32.8752 86.5864 31.1248 86.5864 29.7812 87.4821L11.1094 99.93C9.78029 100.816 8 99.8633 8 98.2659V6.00293Z" fill="#014D4E"/>
<path d="M8 6.00293C8 3.79379 9.79086 2.00293 12 2.00293H52C54.2091 2.00293 56 3.79379 56 6.00293V98.2659C56 99.8633 54.2197 100.816 52.8906 99.93L34.2188 87.4821C32.8752 86.5864 31.1248 86.5864 29.7812 87.4821L11.1094 99.93C9.78029 100.816 8 99.8633 8 98.2659V6.00293Z" fill="#CB1517"/>
</g>
<path d="M24.2874 50.12L24.0634 48.84C24.4474 48.1573 24.8954 47.4 25.4074 46.568C25.9194 45.736 26.4527 44.8827 27.0074 44.008C27.562 43.1333 28.1167 42.2693 28.6714 41.416C29.2474 40.5627 29.77 39.7733 30.2394 39.048C30.73 38.3227 31.1567 37.6933 31.5194 37.16C31.9034 36.6267 32.1914 36.2427 32.3834 36.008L35.7434 35.72H35.9994L36.3834 36.392C36.3407 36.6907 36.3087 37.064 36.2874 37.512C36.2874 37.96 36.2767 38.3013 36.2554 38.536C36.234 38.8773 36.2127 39.1973 36.1914 39.496C36.1914 39.7947 36.1807 40.1467 36.1594 40.552C36.1594 40.9573 36.1594 41.448 36.1594 42.024C36.1594 42.6 36.1594 43.336 36.1594 44.232V47.88H38.8794L39.0074 48.072L38.6554 50.344L38.4314 50.504H36.1594C36.1594 50.9307 36.1594 51.304 36.1594 51.624C36.1594 51.9227 36.1594 52.1893 36.1594 52.424C36.1807 52.6587 36.1914 52.8827 36.1914 53.096C36.2127 53.288 36.2447 53.5013 36.2874 53.736C36.33 54.184 36.426 54.5253 36.5754 54.76C36.746 54.9733 36.9167 55.1547 37.0874 55.304C37.258 55.4533 37.546 55.5707 37.9514 55.656C38.378 55.7413 38.7514 55.784 39.0714 55.784L39.1994 55.944L39.2634 57L39.1994 57.128C39.05 57.128 38.826 57.1173 38.5274 57.096C38.2287 57.0747 37.9087 57.0533 37.5674 57.032C37.2474 57.032 36.938 57.0213 36.6394 57C36.3407 57 36.1167 57 35.9674 57H32.8954C32.746 57 32.5007 57 32.1594 57C31.818 57.0213 31.4554 57.032 31.0714 57.032C30.7087 57.0533 30.3567 57.0747 30.0154 57.096C29.674 57.1173 29.4287 57.128 29.2794 57.128L29.2474 57L29.3754 55.912L29.5034 55.784C29.674 55.784 29.866 55.7733 30.0794 55.752C30.314 55.7307 30.538 55.6987 30.7514 55.656C30.986 55.6133 31.1887 55.5707 31.3594 55.528C31.5514 55.464 31.69 55.3893 31.7754 55.304C31.9674 55.1547 32.138 54.9627 32.2874 54.728C32.458 54.4933 32.5434 54.1627 32.5434 53.736C32.586 53.3307 32.618 52.872 32.6394 52.36C32.6607 51.848 32.6714 51.2293 32.6714 50.504H25.6634L24.2874 50.12ZM32.5754 39.688C32.2767 40.008 31.9034 40.488 31.4554 41.128C31.0074 41.768 30.538 42.472 30.0474 43.24C29.5567 44.008 29.0767 44.7973 28.6074 45.608C28.138 46.4187 27.7434 47.176 27.4234 47.88H32.6714V44.296C32.6714 43.9547 32.6714 43.5813 32.6714 43.176C32.6714 42.7493 32.6607 42.3333 32.6394 41.928C32.6394 41.5013 32.6287 41.096 32.6074 40.712C32.6074 40.328 32.5967 39.9867 32.5754 39.688Z" fill="url(#paint0_linear_4001_1498)"/>
<path d="M24.2874 50.12L24.0634 48.84C24.4474 48.1573 24.8954 47.4 25.4074 46.568C25.9194 45.736 26.4527 44.8827 27.0074 44.008C27.562 43.1333 28.1167 42.2693 28.6714 41.416C29.2474 40.5627 29.77 39.7733 30.2394 39.048C30.73 38.3227 31.1567 37.6933 31.5194 37.16C31.9034 36.6267 32.1914 36.2427 32.3834 36.008L35.7434 35.72H35.9994L36.3834 36.392C36.3407 36.6907 36.3087 37.064 36.2874 37.512C36.2874 37.96 36.2767 38.3013 36.2554 38.536C36.234 38.8773 36.2127 39.1973 36.1914 39.496C36.1914 39.7947 36.1807 40.1467 36.1594 40.552C36.1594 40.9573 36.1594 41.448 36.1594 42.024C36.1594 42.6 36.1594 43.336 36.1594 44.232V47.88H38.8794L39.0074 48.072L38.6554 50.344L38.4314 50.504H36.1594C36.1594 50.9307 36.1594 51.304 36.1594 51.624C36.1594 51.9227 36.1594 52.1893 36.1594 52.424C36.1807 52.6587 36.1914 52.8827 36.1914 53.096C36.2127 53.288 36.2447 53.5013 36.2874 53.736C36.33 54.184 36.426 54.5253 36.5754 54.76C36.746 54.9733 36.9167 55.1547 37.0874 55.304C37.258 55.4533 37.546 55.5707 37.9514 55.656C38.378 55.7413 38.7514 55.784 39.0714 55.784L39.1994 55.944L39.2634 57L39.1994 57.128C39.05 57.128 38.826 57.1173 38.5274 57.096C38.2287 57.0747 37.9087 57.0533 37.5674 57.032C37.2474 57.032 36.938 57.0213 36.6394 57C36.3407 57 36.1167 57 35.9674 57H32.8954C32.746 57 32.5007 57 32.1594 57C31.818 57.0213 31.4554 57.032 31.0714 57.032C30.7087 57.0533 30.3567 57.0747 30.0154 57.096C29.674 57.1173 29.4287 57.128 29.2794 57.128L29.2474 57L29.3754 55.912L29.5034 55.784C29.674 55.784 29.866 55.7733 30.0794 55.752C30.314 55.7307 30.538 55.6987 30.7514 55.656C30.986 55.6133 31.1887 55.5707 31.3594 55.528C31.5514 55.464 31.69 55.3893 31.7754 55.304C31.9674 55.1547 32.138 54.9627 32.2874 54.728C32.458 54.4933 32.5434 54.1627 32.5434 53.736C32.586 53.3307 32.618 52.872 32.6394 52.36C32.6607 51.848 32.6714 51.2293 32.6714 50.504H25.6634L24.2874 50.12ZM32.5754 39.688C32.2767 40.008 31.9034 40.488 31.4554 41.128C31.0074 41.768 30.538 42.472 30.0474 43.24C29.5567 44.008 29.0767 44.7973 28.6074 45.608C28.138 46.4187 27.7434 47.176 27.4234 47.88H32.6714V44.296C32.6714 43.9547 32.6714 43.5813 32.6714 43.176C32.6714 42.7493 32.6607 42.3333 32.6394 41.928C32.6394 41.5013 32.6287 41.096 32.6074 40.712C32.6074 40.328 32.5967 39.9867 32.5754 39.688Z" fill="white" fill-opacity="0.2"/>
<defs>
<filter id="filter0_d_4001_1498" x="2" y="0.00292969" width="56" height="106.266" filterUnits="userSpaceOnUse" color-interpolation-filters="sRGB">
<feFlood flood-opacity="0" result="BackgroundImageFix"/>
<feColorMatrix in="SourceAlpha" type="matrix" values="0 0 0 0 0 0 0 0 0 0 0 0 0 0 0 0 0 0 127 0" result="hardAlpha"/>
<feOffset dx="-2" dy="2"/>
<feGaussianBlur stdDeviation="2"/>
<feComposite in2="hardAlpha" operator="out"/>
<feColorMatrix type="matrix" values="0 0 0 0 0 0 0 0 0 0 0 0 0 0 0 0 0 0 0.25 0"/>
<feBlend mode="normal" in2="BackgroundImageFix" result="effect1_dropShadow_4001_1498"/>
<feBlend mode="normal" in="SourceGraphic" in2="effect1_dropShadow_4001_1498" result="shape"/>
</filter>
<linearGradient id="paint0_linear_4001_1498" x1="43.9" y1="35" x2="34.695" y2="61.4822" gradientUnits="userSpaceOnUse">
<stop stop-color="#F4D455"/>
<stop offset="1" stop-color="white"/>
</linearGradient>
</defs>
</svg>
