<svg width="58" height="107" viewBox="0 0 58 107" fill="none" xmlns="http://www.w3.org/2000/svg">
<path d="M0 10.0144L11 3.0144V10.0144H0Z" fill="#991011"/>
<g filter="url(#filter0_d_4001_1120)">
<path d="M8 6.01538C8 3.80624 9.79086 2.01538 12 2.01538H52C54.2091 2.01538 56 3.80624 56 6.01538V98.2783C56 99.8757 54.2197 100.829 52.8906 99.9424L34.2188 87.4946C32.8752 86.5988 31.1248 86.5988 29.7812 87.4946L11.1094 99.9425C9.78029 100.829 8 99.8757 8 98.2783V6.01538Z" fill="#014D4E"/>
<path d="M8 6.01538C8 3.80624 9.79086 2.01538 12 2.01538H52C54.2091 2.01538 56 3.80624 56 6.01538V98.2783C56 99.8757 54.2197 100.829 52.8906 99.9424L34.2188 87.4946C32.8752 86.5988 31.1248 86.5988 29.7812 87.4946L11.1094 99.9425C9.78029 100.829 8 99.8757 8 98.2783V6.01538Z" fill="#CB1517"/>
</g>
<path d="M17.2291 39.9244L17.3251 39.7325C18.4345 39.1778 19.4798 38.6124 20.4611 38.0364C21.4425 37.4605 22.4131 36.7138 23.3731 35.7964H23.5971L24.6211 36.0844C24.5998 36.2551 24.5785 36.4578 24.5571 36.6924C24.5571 36.9058 24.5465 37.1298 24.5251 37.3645C24.5251 37.5991 24.5145 37.8231 24.4931 38.0364C24.4931 38.2498 24.4931 38.4205 24.4931 38.5485C24.4718 38.8898 24.4505 39.2098 24.4291 39.5084C24.4291 39.8071 24.4185 40.1591 24.3971 40.5645C24.3971 40.9698 24.3971 41.4605 24.3971 42.0365C24.3971 42.6125 24.3971 43.3485 24.3971 44.2445V48.1165C24.3971 49.0125 24.3971 49.7485 24.3971 50.3245C24.3971 50.8791 24.3971 51.3485 24.3971 51.7325C24.4185 52.1165 24.4291 52.4578 24.4291 52.7565C24.4505 53.0551 24.4825 53.3858 24.5251 53.7485C24.5678 54.1965 24.6638 54.5378 24.8131 54.7725C24.9625 54.9858 25.1225 55.1671 25.2931 55.3165C25.4851 55.4658 25.7838 55.5831 26.1891 55.6685C26.5945 55.7538 26.9571 55.7965 27.2771 55.7965L27.4371 55.9565L27.5011 57.0125L27.4371 57.1405C27.2878 57.1405 27.0638 57.1298 26.7651 57.1085C26.4665 57.0871 26.1465 57.0658 25.8051 57.0445C25.4638 57.0445 25.1438 57.0338 24.8451 57.0125C24.5465 57.0125 24.3225 57.0125 24.1731 57.0125H21.0691C20.9198 57.0125 20.6958 57.0125 20.3971 57.0125C20.0985 57.0338 19.7785 57.0445 19.4371 57.0445C19.0958 57.0658 18.7758 57.0871 18.4771 57.1085C18.1785 57.1298 17.9545 57.1405 17.8051 57.1405L17.7411 57.0125L17.8051 55.9245L17.9011 55.7965C18.2425 55.7965 18.6265 55.7645 19.0531 55.7005C19.5011 55.6151 19.8105 55.4871 19.9811 55.3165C20.1518 55.1671 20.3118 54.9751 20.4611 54.7405C20.6105 54.5058 20.7065 54.1751 20.7491 53.7485C20.7705 53.4711 20.7918 53.2045 20.8131 52.9485C20.8345 52.6711 20.8451 52.3618 20.8451 52.0205C20.8665 51.6578 20.8771 51.2311 20.8771 50.7405C20.8771 50.2498 20.8771 49.6311 20.8771 48.8845V44.3085C20.8771 43.7111 20.8771 43.2205 20.8771 42.8365C20.8771 42.4525 20.8665 42.1325 20.8451 41.8765C20.8451 41.6205 20.8345 41.3965 20.8131 41.2045C20.7918 41.0125 20.7705 40.7991 20.7491 40.5645L17.3251 41.4285L17.2291 41.3005V39.9244ZM37.9486 35.7325C39.2926 35.7325 40.4873 36.0205 41.5326 36.5965C42.5993 37.1725 43.4953 37.9618 44.2206 38.9645C44.946 39.9458 45.5006 41.0871 45.8846 42.3885C46.2686 43.6898 46.4606 45.0551 46.4606 46.4845C46.4606 47.8925 46.2686 49.2578 45.8846 50.5805C45.522 51.8818 44.978 53.0338 44.2526 54.0365C43.5273 55.0391 42.6206 55.8498 41.5326 56.4685C40.4446 57.0658 39.1966 57.3645 37.7886 57.3645C36.402 57.3645 35.186 57.0765 34.1406 56.5005C33.1166 55.9245 32.2526 55.1565 31.5486 54.1965C30.866 53.2151 30.3433 52.0845 29.9806 50.8045C29.6393 49.5031 29.4686 48.1378 29.4686 46.7085C29.4686 45.1938 29.6606 43.7751 30.0446 42.4525C30.4286 41.1085 30.9833 39.9458 31.7086 38.9645C32.434 37.9618 33.3193 37.1725 34.3646 36.5965C35.41 36.0205 36.6046 35.7325 37.9486 35.7325ZM37.9166 54.7085C38.6846 54.7085 39.3566 54.4951 39.9326 54.0685C40.53 53.6205 41.0313 53.0338 41.4366 52.3085C41.8633 51.5618 42.1833 50.6978 42.3966 49.7165C42.61 48.7138 42.7166 47.6471 42.7166 46.5165C42.7166 45.3645 42.5993 44.2978 42.3646 43.3165C42.1513 42.3138 41.8313 41.4498 41.4046 40.7245C40.978 39.9991 40.4553 39.4338 39.8366 39.0285C39.2393 38.6018 38.5673 38.3885 37.8206 38.3885C37.074 38.3885 36.4126 38.5911 35.8366 38.9965C35.282 39.4018 34.8126 39.9671 34.4286 40.6924C34.0446 41.4178 33.746 42.2818 33.5326 43.2845C33.3406 44.2658 33.2446 45.3325 33.2446 46.4845C33.2446 47.7645 33.362 48.9165 33.5966 49.9405C33.8313 50.9431 34.1513 51.7965 34.5566 52.5005C34.9833 53.2045 35.474 53.7485 36.0286 54.1325C36.6046 54.5165 37.234 54.7085 37.9166 54.7085Z" fill="url(#paint0_linear_4001_1120)"/>
<path d="M17.2291 39.9244L17.3251 39.7325C18.4345 39.1778 19.4798 38.6124 20.4611 38.0364C21.4425 37.4605 22.4131 36.7138 23.3731 35.7964H23.5971L24.6211 36.0844C24.5998 36.2551 24.5785 36.4578 24.5571 36.6924C24.5571 36.9058 24.5465 37.1298 24.5251 37.3645C24.5251 37.5991 24.5145 37.8231 24.4931 38.0364C24.4931 38.2498 24.4931 38.4205 24.4931 38.5485C24.4718 38.8898 24.4505 39.2098 24.4291 39.5084C24.4291 39.8071 24.4185 40.1591 24.3971 40.5645C24.3971 40.9698 24.3971 41.4605 24.3971 42.0365C24.3971 42.6125 24.3971 43.3485 24.3971 44.2445V48.1165C24.3971 49.0125 24.3971 49.7485 24.3971 50.3245C24.3971 50.8791 24.3971 51.3485 24.3971 51.7325C24.4185 52.1165 24.4291 52.4578 24.4291 52.7565C24.4505 53.0551 24.4825 53.3858 24.5251 53.7485C24.5678 54.1965 24.6638 54.5378 24.8131 54.7725C24.9625 54.9858 25.1225 55.1671 25.2931 55.3165C25.4851 55.4658 25.7838 55.5831 26.1891 55.6685C26.5945 55.7538 26.9571 55.7965 27.2771 55.7965L27.4371 55.9565L27.5011 57.0125L27.4371 57.1405C27.2878 57.1405 27.0638 57.1298 26.7651 57.1085C26.4665 57.0871 26.1465 57.0658 25.8051 57.0445C25.4638 57.0445 25.1438 57.0338 24.8451 57.0125C24.5465 57.0125 24.3225 57.0125 24.1731 57.0125H21.0691C20.9198 57.0125 20.6958 57.0125 20.3971 57.0125C20.0985 57.0338 19.7785 57.0445 19.4371 57.0445C19.0958 57.0658 18.7758 57.0871 18.4771 57.1085C18.1785 57.1298 17.9545 57.1405 17.8051 57.1405L17.7411 57.0125L17.8051 55.9245L17.9011 55.7965C18.2425 55.7965 18.6265 55.7645 19.0531 55.7005C19.5011 55.6151 19.8105 55.4871 19.9811 55.3165C20.1518 55.1671 20.3118 54.9751 20.4611 54.7405C20.6105 54.5058 20.7065 54.1751 20.7491 53.7485C20.7705 53.4711 20.7918 53.2045 20.8131 52.9485C20.8345 52.6711 20.8451 52.3618 20.8451 52.0205C20.8665 51.6578 20.8771 51.2311 20.8771 50.7405C20.8771 50.2498 20.8771 49.6311 20.8771 48.8845V44.3085C20.8771 43.7111 20.8771 43.2205 20.8771 42.8365C20.8771 42.4525 20.8665 42.1325 20.8451 41.8765C20.8451 41.6205 20.8345 41.3965 20.8131 41.2045C20.7918 41.0125 20.7705 40.7991 20.7491 40.5645L17.3251 41.4285L17.2291 41.3005V39.9244ZM37.9486 35.7325C39.2926 35.7325 40.4873 36.0205 41.5326 36.5965C42.5993 37.1725 43.4953 37.9618 44.2206 38.9645C44.946 39.9458 45.5006 41.0871 45.8846 42.3885C46.2686 43.6898 46.4606 45.0551 46.4606 46.4845C46.4606 47.8925 46.2686 49.2578 45.8846 50.5805C45.522 51.8818 44.978 53.0338 44.2526 54.0365C43.5273 55.0391 42.6206 55.8498 41.5326 56.4685C40.4446 57.0658 39.1966 57.3645 37.7886 57.3645C36.402 57.3645 35.186 57.0765 34.1406 56.5005C33.1166 55.9245 32.2526 55.1565 31.5486 54.1965C30.866 53.2151 30.3433 52.0845 29.9806 50.8045C29.6393 49.5031 29.4686 48.1378 29.4686 46.7085C29.4686 45.1938 29.6606 43.7751 30.0446 42.4525C30.4286 41.1085 30.9833 39.9458 31.7086 38.9645C32.434 37.9618 33.3193 37.1725 34.3646 36.5965C35.41 36.0205 36.6046 35.7325 37.9486 35.7325ZM37.9166 54.7085C38.6846 54.7085 39.3566 54.4951 39.9326 54.0685C40.53 53.6205 41.0313 53.0338 41.4366 52.3085C41.8633 51.5618 42.1833 50.6978 42.3966 49.7165C42.61 48.7138 42.7166 47.6471 42.7166 46.5165C42.7166 45.3645 42.5993 44.2978 42.3646 43.3165C42.1513 42.3138 41.8313 41.4498 41.4046 40.7245C40.978 39.9991 40.4553 39.4338 39.8366 39.0285C39.2393 38.6018 38.5673 38.3885 37.8206 38.3885C37.074 38.3885 36.4126 38.5911 35.8366 38.9965C35.282 39.4018 34.8126 39.9671 34.4286 40.6924C34.0446 41.4178 33.746 42.2818 33.5326 43.2845C33.3406 44.2658 33.2446 45.3325 33.2446 46.4845C33.2446 47.7645 33.362 48.9165 33.5966 49.9405C33.8313 50.9431 34.1513 51.7965 34.5566 52.5005C34.9833 53.2045 35.474 53.7485 36.0286 54.1325C36.6046 54.5165 37.234 54.7085 37.9166 54.7085Z" fill="white" fill-opacity="0.2"/>
<defs>
<filter id="filter0_d_4001_1120" x="2" y="0.0153809" width="56" height="106.266" filterUnits="userSpaceOnUse" color-interpolation-filters="sRGB">
<feFlood flood-opacity="0" result="BackgroundImageFix"/>
<feColorMatrix in="SourceAlpha" type="matrix" values="0 0 0 0 0 0 0 0 0 0 0 0 0 0 0 0 0 0 127 0" result="hardAlpha"/>
<feOffset dx="-2" dy="2"/>
<feGaussianBlur stdDeviation="2"/>
<feComposite in2="hardAlpha" operator="out"/>
<feColorMatrix type="matrix" values="0 0 0 0 0 0 0 0 0 0 0 0 0 0 0 0 0 0 0.25 0"/>
<feBlend mode="normal" in2="BackgroundImageFix" result="effect1_dropShadow_4001_1120"/>
<feBlend mode="normal" in="SourceGraphic" in2="effect1_dropShadow_4001_1120" result="shape"/>
</filter>
<linearGradient id="paint0_linear_4001_1120" x1="43.9" y1="35.0125" x2="34.695" y2="61.4947" gradientUnits="userSpaceOnUse">
<stop stop-color="#F4D455"/>
<stop offset="1" stop-color="white"/>
</linearGradient>
</defs>
</svg>
