<svg width="58" height="107" viewBox="0 0 58 107" fill="none" xmlns="http://www.w3.org/2000/svg">
<path d="M0 10.0029L11 3.00293V10.0029H0Z" fill="#991011"/>
<g filter="url(#filter0_d_4001_1013)">
<path d="M8 6.00391C8 3.79477 9.79086 2.00391 12 2.00391H52C54.2091 2.00391 56 3.79477 56 6.00391V98.2669C56 99.8643 54.2197 100.817 52.8906 99.931L34.2188 87.4831C32.8752 86.5874 31.1248 86.5874 29.7812 87.4831L11.1094 99.931C9.78029 100.817 8 99.8643 8 98.2669V6.00391Z" fill="#014D4E"/>
<path d="M8 6.00391C8 3.79477 9.79086 2.00391 12 2.00391H52C54.2091 2.00391 56 3.79477 56 6.00391V98.2669C56 99.8643 54.2197 100.817 52.8906 99.931L34.2188 87.4831C32.8752 86.5874 31.1248 86.5874 29.7812 87.4831L11.1094 99.931C9.78029 100.817 8 99.8643 8 98.2669V6.00391Z" fill="#CB1517"/>
</g>
<path d="M27.026 51.657C27.0473 52.041 27.154 52.4143 27.346 52.777C27.5593 53.1396 27.858 53.4703 28.242 53.769C28.6473 54.0463 29.1273 54.2703 29.682 54.441C30.258 54.6116 30.9193 54.697 31.666 54.697C32.3913 54.697 32.9887 54.5903 33.458 54.377C33.9273 54.1423 34.3007 53.8543 34.578 53.513C34.8767 53.1503 35.0793 52.7556 35.186 52.329C35.314 51.9023 35.378 51.4863 35.378 51.081C35.378 50.5903 35.3033 50.0996 35.154 49.609C35.026 49.1183 34.8127 48.681 34.514 48.297C34.2367 47.913 33.8847 47.6036 33.458 47.369C33.0313 47.1343 32.5193 47.017 31.922 47.017H30.898L30.738 46.889L30.642 45.033L30.802 44.873H31.378C31.7833 44.873 32.178 44.7663 32.562 44.553C32.946 44.3183 33.2767 44.0303 33.554 43.689C33.8527 43.3263 34.0873 42.921 34.258 42.473C34.45 42.025 34.546 41.5876 34.546 41.161C34.546 40.4143 34.3007 39.7636 33.81 39.209C33.3193 38.633 32.5727 38.345 31.57 38.345C30.866 38.345 30.2793 38.441 29.81 38.633C29.3407 38.825 28.9567 39.0916 28.658 39.433C28.3593 39.7743 28.1247 40.201 27.954 40.713C27.8047 41.2036 27.698 41.7476 27.634 42.345L27.506 42.473H25.81L25.426 39.849L25.49 39.561C25.7247 39.113 26.034 38.665 26.418 38.217C26.802 37.7476 27.2713 37.3316 27.826 36.969C28.3807 36.585 29.01 36.2863 29.714 36.073C30.4393 35.8383 31.25 35.721 32.146 35.721C32.8713 35.721 33.586 35.8276 34.29 36.041C34.994 36.233 35.6127 36.5316 36.146 36.937C36.7007 37.3423 37.1487 37.8543 37.49 38.473C37.8313 39.0916 38.002 39.817 38.002 40.649C38.002 41.3103 37.9167 41.9076 37.746 42.441C37.5753 42.9743 37.3513 43.4436 37.074 43.849C36.7967 44.2543 36.498 44.5956 36.178 44.873C35.858 45.129 35.538 45.321 35.218 45.449V45.577C36.4127 45.8116 37.3513 46.4303 38.034 47.433C38.738 48.4356 39.09 49.609 39.09 50.953C39.09 51.8916 38.898 52.7556 38.514 53.545C38.1513 54.3343 37.6287 55.017 36.946 55.593C36.2847 56.1476 35.474 56.585 34.514 56.905C33.554 57.2036 32.498 57.353 31.346 57.353C28.466 57.353 26.322 56.3823 24.914 54.441L24.882 54.153L25.234 51.529H26.93L27.026 51.657Z" fill="url(#paint0_linear_4001_1013)"/>
<path d="M27.026 51.657C27.0473 52.041 27.154 52.4143 27.346 52.777C27.5593 53.1396 27.858 53.4703 28.242 53.769C28.6473 54.0463 29.1273 54.2703 29.682 54.441C30.258 54.6116 30.9193 54.697 31.666 54.697C32.3913 54.697 32.9887 54.5903 33.458 54.377C33.9273 54.1423 34.3007 53.8543 34.578 53.513C34.8767 53.1503 35.0793 52.7556 35.186 52.329C35.314 51.9023 35.378 51.4863 35.378 51.081C35.378 50.5903 35.3033 50.0996 35.154 49.609C35.026 49.1183 34.8127 48.681 34.514 48.297C34.2367 47.913 33.8847 47.6036 33.458 47.369C33.0313 47.1343 32.5193 47.017 31.922 47.017H30.898L30.738 46.889L30.642 45.033L30.802 44.873H31.378C31.7833 44.873 32.178 44.7663 32.562 44.553C32.946 44.3183 33.2767 44.0303 33.554 43.689C33.8527 43.3263 34.0873 42.921 34.258 42.473C34.45 42.025 34.546 41.5876 34.546 41.161C34.546 40.4143 34.3007 39.7636 33.81 39.209C33.3193 38.633 32.5727 38.345 31.57 38.345C30.866 38.345 30.2793 38.441 29.81 38.633C29.3407 38.825 28.9567 39.0916 28.658 39.433C28.3593 39.7743 28.1247 40.201 27.954 40.713C27.8047 41.2036 27.698 41.7476 27.634 42.345L27.506 42.473H25.81L25.426 39.849L25.49 39.561C25.7247 39.113 26.034 38.665 26.418 38.217C26.802 37.7476 27.2713 37.3316 27.826 36.969C28.3807 36.585 29.01 36.2863 29.714 36.073C30.4393 35.8383 31.25 35.721 32.146 35.721C32.8713 35.721 33.586 35.8276 34.29 36.041C34.994 36.233 35.6127 36.5316 36.146 36.937C36.7007 37.3423 37.1487 37.8543 37.49 38.473C37.8313 39.0916 38.002 39.817 38.002 40.649C38.002 41.3103 37.9167 41.9076 37.746 42.441C37.5753 42.9743 37.3513 43.4436 37.074 43.849C36.7967 44.2543 36.498 44.5956 36.178 44.873C35.858 45.129 35.538 45.321 35.218 45.449V45.577C36.4127 45.8116 37.3513 46.4303 38.034 47.433C38.738 48.4356 39.09 49.609 39.09 50.953C39.09 51.8916 38.898 52.7556 38.514 53.545C38.1513 54.3343 37.6287 55.017 36.946 55.593C36.2847 56.1476 35.474 56.585 34.514 56.905C33.554 57.2036 32.498 57.353 31.346 57.353C28.466 57.353 26.322 56.3823 24.914 54.441L24.882 54.153L25.234 51.529H26.93L27.026 51.657Z" fill="white" fill-opacity="0.2"/>
<defs>
<filter id="filter0_d_4001_1013" x="2" y="0.00390625" width="56" height="106.266" filterUnits="userSpaceOnUse" color-interpolation-filters="sRGB">
<feFlood flood-opacity="0" result="BackgroundImageFix"/>
<feColorMatrix in="SourceAlpha" type="matrix" values="0 0 0 0 0 0 0 0 0 0 0 0 0 0 0 0 0 0 127 0" result="hardAlpha"/>
<feOffset dx="-2" dy="2"/>
<feGaussianBlur stdDeviation="2"/>
<feComposite in2="hardAlpha" operator="out"/>
<feColorMatrix type="matrix" values="0 0 0 0 0 0 0 0 0 0 0 0 0 0 0 0 0 0 0.25 0"/>
<feBlend mode="normal" in2="BackgroundImageFix" result="effect1_dropShadow_4001_1013"/>
<feBlend mode="normal" in="SourceGraphic" in2="effect1_dropShadow_4001_1013" result="shape"/>
</filter>
<linearGradient id="paint0_linear_4001_1013" x1="43.9" y1="35.001" x2="34.695" y2="61.4832" gradientUnits="userSpaceOnUse">
<stop stop-color="#F4D455"/>
<stop offset="1" stop-color="white"/>
</linearGradient>
</defs>
</svg>
