<svg width="58" height="107" viewBox="0 0 58 107" fill="none" xmlns="http://www.w3.org/2000/svg">
<path d="M0 10.0015L11 3.00146V10.0015H0Z" fill="#991011"/>
<g filter="url(#filter0_d_4001_1199)">
<path d="M8 6.00244C8 3.7933 9.79086 2.00244 12 2.00244H52C54.2091 2.00244 56 3.7933 56 6.00244V98.2654C56 99.8628 54.2197 100.816 52.8906 99.9295L34.2188 87.4816C32.8752 86.5859 31.1248 86.5859 29.7812 87.4816L11.1094 99.9295C9.78029 100.816 8 99.8628 8 98.2654V6.00244Z" fill="#014D4E"/>
<path d="M8 6.00244C8 3.7933 9.79086 2.00244 12 2.00244H52C54.2091 2.00244 56 3.7933 56 6.00244V98.2654C56 99.8628 54.2197 100.816 52.8906 99.9295L34.2188 87.4816C32.8752 86.5859 31.1248 86.5859 29.7812 87.4816L11.1094 99.9295C9.78029 100.816 8 99.8628 8 98.2654V6.00244Z" fill="#CB1517"/>
</g>
<path d="M25.0168 39.8475L25.1128 39.5595C25.3901 39.0688 25.7421 38.5995 26.1688 38.1515C26.6168 37.6822 27.1288 37.2662 27.7048 36.9035C28.3021 36.5408 28.9741 36.2528 29.7208 36.0395C30.4888 35.8262 31.3528 35.7195 32.3128 35.7195C34.5528 35.7195 36.1634 36.2208 37.1448 37.2235C38.1261 38.2048 38.6168 39.5382 38.6168 41.2235C38.6168 42.2262 38.3714 43.1435 37.8808 43.9755C37.4114 44.8075 36.8248 45.7035 36.1208 46.6635C35.5874 47.3675 34.9581 48.1355 34.2328 48.9675C33.5074 49.7782 32.8141 50.5568 32.1528 51.3035C31.5127 52.0288 30.9581 52.6795 30.4888 53.2555C30.0408 53.8102 29.8168 54.1942 29.8168 54.4075L29.8808 54.5035H31.7368C32.9528 54.5035 33.9234 54.4928 34.6488 54.4715C35.3741 54.4288 35.9394 54.3435 36.3448 54.2155C36.7714 54.0662 37.0701 53.8422 37.2408 53.5435C37.4328 53.2448 37.6034 52.8288 37.7528 52.2955L37.9128 52.1035H39.4167L38.8408 56.8715L38.5528 57.1915C38.4034 57.1915 38.0301 57.1808 37.4328 57.1595C36.8354 57.1382 36.1848 57.1168 35.4808 57.0955C34.7768 57.0742 34.0941 57.0528 33.4328 57.0315C32.7714 57.0102 32.2914 56.9995 31.9928 56.9995H28.8248C28.2061 56.9995 27.5128 57.0208 26.7448 57.0635C25.9768 57.1062 25.2514 57.1488 24.5688 57.1915L24.2488 56.5195V55.7835C24.6968 55.2075 25.3048 54.4822 26.0728 53.6075C26.8408 52.7115 27.6514 51.7728 28.5048 50.7915C29.3794 49.7888 30.2328 48.7862 31.0648 47.7835C31.9181 46.7808 32.6541 45.8742 33.2728 45.0635C33.8274 44.3168 34.2541 43.6235 34.5528 42.9835C34.8514 42.3222 35.0008 41.6075 35.0008 40.8395C35.0008 40.0715 34.7128 39.4742 34.1368 39.0475C33.5821 38.5995 32.9101 38.3755 32.1208 38.3755C30.6274 38.3755 29.4114 38.7382 28.4728 39.4635C27.5341 40.1675 27.0221 41.2342 26.9368 42.6635L26.8088 42.7915H25.4008L25.0168 39.8475Z" fill="url(#paint0_linear_4001_1199)"/>
<path d="M25.0168 39.8475L25.1128 39.5595C25.3901 39.0688 25.7421 38.5995 26.1688 38.1515C26.6168 37.6822 27.1288 37.2662 27.7048 36.9035C28.3021 36.5408 28.9741 36.2528 29.7208 36.0395C30.4888 35.8262 31.3528 35.7195 32.3128 35.7195C34.5528 35.7195 36.1634 36.2208 37.1448 37.2235C38.1261 38.2048 38.6168 39.5382 38.6168 41.2235C38.6168 42.2262 38.3714 43.1435 37.8808 43.9755C37.4114 44.8075 36.8248 45.7035 36.1208 46.6635C35.5874 47.3675 34.9581 48.1355 34.2328 48.9675C33.5074 49.7782 32.8141 50.5568 32.1528 51.3035C31.5127 52.0288 30.9581 52.6795 30.4888 53.2555C30.0408 53.8102 29.8168 54.1942 29.8168 54.4075L29.8808 54.5035H31.7368C32.9528 54.5035 33.9234 54.4928 34.6488 54.4715C35.3741 54.4288 35.9394 54.3435 36.3448 54.2155C36.7714 54.0662 37.0701 53.8422 37.2408 53.5435C37.4328 53.2448 37.6034 52.8288 37.7528 52.2955L37.9128 52.1035H39.4167L38.8408 56.8715L38.5528 57.1915C38.4034 57.1915 38.0301 57.1808 37.4328 57.1595C36.8354 57.1382 36.1848 57.1168 35.4808 57.0955C34.7768 57.0742 34.0941 57.0528 33.4328 57.0315C32.7714 57.0102 32.2914 56.9995 31.9928 56.9995H28.8248C28.2061 56.9995 27.5128 57.0208 26.7448 57.0635C25.9768 57.1062 25.2514 57.1488 24.5688 57.1915L24.2488 56.5195V55.7835C24.6968 55.2075 25.3048 54.4822 26.0728 53.6075C26.8408 52.7115 27.6514 51.7728 28.5048 50.7915C29.3794 49.7888 30.2328 48.7862 31.0648 47.7835C31.9181 46.7808 32.6541 45.8742 33.2728 45.0635C33.8274 44.3168 34.2541 43.6235 34.5528 42.9835C34.8514 42.3222 35.0008 41.6075 35.0008 40.8395C35.0008 40.0715 34.7128 39.4742 34.1368 39.0475C33.5821 38.5995 32.9101 38.3755 32.1208 38.3755C30.6274 38.3755 29.4114 38.7382 28.4728 39.4635C27.5341 40.1675 27.0221 41.2342 26.9368 42.6635L26.8088 42.7915H25.4008L25.0168 39.8475Z" fill="white" fill-opacity="0.2"/>
<defs>
<filter id="filter0_d_4001_1199" x="2" y="0.00244141" width="56" height="106.266" filterUnits="userSpaceOnUse" color-interpolation-filters="sRGB">
<feFlood flood-opacity="0" result="BackgroundImageFix"/>
<feColorMatrix in="SourceAlpha" type="matrix" values="0 0 0 0 0 0 0 0 0 0 0 0 0 0 0 0 0 0 127 0" result="hardAlpha"/>
<feOffset dx="-2" dy="2"/>
<feGaussianBlur stdDeviation="2"/>
<feComposite in2="hardAlpha" operator="out"/>
<feColorMatrix type="matrix" values="0 0 0 0 0 0 0 0 0 0 0 0 0 0 0 0 0 0 0.25 0"/>
<feBlend mode="normal" in2="BackgroundImageFix" result="effect1_dropShadow_4001_1199"/>
<feBlend mode="normal" in="SourceGraphic" in2="effect1_dropShadow_4001_1199" result="shape"/>
</filter>
<linearGradient id="paint0_linear_4001_1199" x1="43.9" y1="34.9995" x2="34.695" y2="61.4817" gradientUnits="userSpaceOnUse">
<stop stop-color="#F4D455"/>
<stop offset="1" stop-color="white"/>
</linearGradient>
</defs>
</svg>
