<svg width="58" height="107" viewBox="0 0 58 107" fill="none" xmlns="http://www.w3.org/2000/svg">
<path d="M0 10.0127L11 3.0127V10.0127H0Z" fill="#991011"/>
<g filter="url(#filter0_d_4001_693)">
<path d="M8 6.01367C8 3.80454 9.79086 2.01367 12 2.01367H52C54.2091 2.01367 56 3.80453 56 6.01367V98.2766C56 99.874 54.2197 100.827 52.8906 99.9407L34.2188 87.4929C32.8752 86.5971 31.1248 86.5971 29.7812 87.4929L11.1094 99.9407C9.78029 100.827 8 99.874 8 98.2766V6.01367Z" fill="#014D4E"/>
<path d="M8 6.01367C8 3.80454 9.79086 2.01367 12 2.01367H52C54.2091 2.01367 56 3.80453 56 6.01367V98.2766C56 99.874 54.2197 100.827 52.8906 99.9407L34.2188 87.4929C32.8752 86.5971 31.1248 86.5971 29.7812 87.4929L11.1094 99.9407C9.78029 100.827 8 99.874 8 98.2766V6.01367Z" fill="#CB1517"/>
</g>
<path d="M35.5715 47.2827C35.1662 47.9654 34.5582 48.4774 33.7475 48.8187C32.9368 49.1601 32.0302 49.3307 31.0275 49.3307C29.9395 49.3307 28.9902 49.1387 28.1795 48.7547C27.3902 48.3707 26.7288 47.8587 26.1955 47.2187C25.6835 46.5787 25.2995 45.8641 25.0435 45.0747C24.7875 44.2641 24.6595 43.4427 24.6595 42.6107C24.6595 41.7787 24.7875 40.9574 25.0435 40.1467C25.2995 39.3361 25.7048 38.6001 26.2595 37.9387C26.8142 37.2774 27.5288 36.7441 28.4035 36.3387C29.2995 35.9334 30.3875 35.7307 31.6675 35.7307C32.9902 35.7307 34.1102 35.9654 35.0275 36.4347C35.9448 36.9041 36.6808 37.5654 37.2355 38.4187C37.8115 39.2721 38.2275 40.3174 38.4835 41.5547C38.7395 42.7707 38.8675 44.1254 38.8675 45.6187C38.8675 46.4507 38.8248 47.3254 38.7395 48.2427C38.6542 49.1387 38.5048 50.0241 38.2915 50.8987C38.0782 51.7734 37.7902 52.6054 37.4275 53.3947C37.0862 54.1627 36.6382 54.8454 36.0835 55.4427C35.5288 56.0187 34.8675 56.4881 34.0995 56.8507C33.3528 57.1921 32.4675 57.3627 31.4435 57.3627C31.0595 57.3627 30.6115 57.3307 30.0995 57.2667C29.6088 57.2241 29.0968 57.1387 28.5635 57.0107C28.0515 56.8827 27.5502 56.7121 27.0595 56.4987C26.5688 56.2854 26.1528 56.0294 25.8115 55.7307L26.2915 53.0747H27.5075C27.6995 53.3734 27.9448 53.6294 28.2435 53.8427C28.5635 54.0561 28.8942 54.2267 29.2355 54.3547C29.5768 54.4827 29.9182 54.5787 30.2595 54.6427C30.6222 54.6854 30.9422 54.7067 31.2195 54.7067C31.9875 54.7067 32.6595 54.5254 33.2355 54.1627C33.8115 53.7787 34.2808 53.2774 34.6435 52.6587C35.0062 52.0187 35.2728 51.2827 35.4435 50.4507C35.6355 49.6187 35.7315 48.7547 35.7315 47.8587C35.7315 47.7734 35.7315 47.6881 35.7315 47.6027C35.7315 47.5174 35.7208 47.4214 35.6995 47.3147L35.5715 47.2827ZM31.7315 46.4827C32.9048 46.4827 33.7688 46.1307 34.3235 45.4267C34.8995 44.7227 35.1875 43.7947 35.1875 42.6427C35.1875 42.1734 35.1342 41.6827 35.0275 41.1707C34.9208 40.6374 34.7288 40.1574 34.4515 39.7307C34.1742 39.3041 33.8115 38.9521 33.3635 38.6747C32.9155 38.3974 32.3608 38.2587 31.6995 38.2587C30.5475 38.2587 29.6728 38.6427 29.0755 39.4107C28.4782 40.1787 28.1795 41.1707 28.1795 42.3867C28.1795 42.8347 28.2222 43.3041 28.3075 43.7947C28.4142 44.2641 28.5955 44.7014 28.8515 45.1067C29.1288 45.4907 29.4915 45.8214 29.9395 46.0987C30.4088 46.3547 31.0062 46.4827 31.7315 46.4827Z" fill="url(#paint0_linear_4001_693)"/>
<path d="M35.5715 47.2827C35.1662 47.9654 34.5582 48.4774 33.7475 48.8187C32.9368 49.1601 32.0302 49.3307 31.0275 49.3307C29.9395 49.3307 28.9902 49.1387 28.1795 48.7547C27.3902 48.3707 26.7288 47.8587 26.1955 47.2187C25.6835 46.5787 25.2995 45.8641 25.0435 45.0747C24.7875 44.2641 24.6595 43.4427 24.6595 42.6107C24.6595 41.7787 24.7875 40.9574 25.0435 40.1467C25.2995 39.3361 25.7048 38.6001 26.2595 37.9387C26.8142 37.2774 27.5288 36.7441 28.4035 36.3387C29.2995 35.9334 30.3875 35.7307 31.6675 35.7307C32.9902 35.7307 34.1102 35.9654 35.0275 36.4347C35.9448 36.9041 36.6808 37.5654 37.2355 38.4187C37.8115 39.2721 38.2275 40.3174 38.4835 41.5547C38.7395 42.7707 38.8675 44.1254 38.8675 45.6187C38.8675 46.4507 38.8248 47.3254 38.7395 48.2427C38.6542 49.1387 38.5048 50.0241 38.2915 50.8987C38.0782 51.7734 37.7902 52.6054 37.4275 53.3947C37.0862 54.1627 36.6382 54.8454 36.0835 55.4427C35.5288 56.0187 34.8675 56.4881 34.0995 56.8507C33.3528 57.1921 32.4675 57.3627 31.4435 57.3627C31.0595 57.3627 30.6115 57.3307 30.0995 57.2667C29.6088 57.2241 29.0968 57.1387 28.5635 57.0107C28.0515 56.8827 27.5502 56.7121 27.0595 56.4987C26.5688 56.2854 26.1528 56.0294 25.8115 55.7307L26.2915 53.0747H27.5075C27.6995 53.3734 27.9448 53.6294 28.2435 53.8427C28.5635 54.0561 28.8942 54.2267 29.2355 54.3547C29.5768 54.4827 29.9182 54.5787 30.2595 54.6427C30.6222 54.6854 30.9422 54.7067 31.2195 54.7067C31.9875 54.7067 32.6595 54.5254 33.2355 54.1627C33.8115 53.7787 34.2808 53.2774 34.6435 52.6587C35.0062 52.0187 35.2728 51.2827 35.4435 50.4507C35.6355 49.6187 35.7315 48.7547 35.7315 47.8587C35.7315 47.7734 35.7315 47.6881 35.7315 47.6027C35.7315 47.5174 35.7208 47.4214 35.6995 47.3147L35.5715 47.2827ZM31.7315 46.4827C32.9048 46.4827 33.7688 46.1307 34.3235 45.4267C34.8995 44.7227 35.1875 43.7947 35.1875 42.6427C35.1875 42.1734 35.1342 41.6827 35.0275 41.1707C34.9208 40.6374 34.7288 40.1574 34.4515 39.7307C34.1742 39.3041 33.8115 38.9521 33.3635 38.6747C32.9155 38.3974 32.3608 38.2587 31.6995 38.2587C30.5475 38.2587 29.6728 38.6427 29.0755 39.4107C28.4782 40.1787 28.1795 41.1707 28.1795 42.3867C28.1795 42.8347 28.2222 43.3041 28.3075 43.7947C28.4142 44.2641 28.5955 44.7014 28.8515 45.1067C29.1288 45.4907 29.4915 45.8214 29.9395 46.0987C30.4088 46.3547 31.0062 46.4827 31.7315 46.4827Z" fill="white" fill-opacity="0.2"/>
<defs>
<filter id="filter0_d_4001_693" x="2" y="0.0136719" width="56" height="106.266" filterUnits="userSpaceOnUse" color-interpolation-filters="sRGB">
<feFlood flood-opacity="0" result="BackgroundImageFix"/>
<feColorMatrix in="SourceAlpha" type="matrix" values="0 0 0 0 0 0 0 0 0 0 0 0 0 0 0 0 0 0 127 0" result="hardAlpha"/>
<feOffset dx="-2" dy="2"/>
<feGaussianBlur stdDeviation="2"/>
<feComposite in2="hardAlpha" operator="out"/>
<feColorMatrix type="matrix" values="0 0 0 0 0 0 0 0 0 0 0 0 0 0 0 0 0 0 0.25 0"/>
<feBlend mode="normal" in2="BackgroundImageFix" result="effect1_dropShadow_4001_693"/>
<feBlend mode="normal" in="SourceGraphic" in2="effect1_dropShadow_4001_693" result="shape"/>
</filter>
<linearGradient id="paint0_linear_4001_693" x1="43.9" y1="35.0107" x2="34.695" y2="61.4929" gradientUnits="userSpaceOnUse">
<stop stop-color="#F4D455"/>
<stop offset="1" stop-color="white"/>
</linearGradient>
</defs>
</svg>
