<svg width="402" height="211" viewBox="0 0 402 211" fill="none" xmlns="http://www.w3.org/2000/svg">
<path d="M-3.16869 175.232C89.9778 270.227 800.548 143.999 468.561 143.999C-146.938 143.999 645.562 104.498 258.562 104.5C182.422 104.501 -96.3151 80.2369 -3.16869 175.232Z" fill="#014D4E"/>
<path d="M-3.16869 175.232C89.9778 270.227 800.548 143.999 468.561 143.999C-146.938 143.999 645.562 104.498 258.562 104.5C182.422 104.501 -96.3151 80.2369 -3.16869 175.232Z" fill="#008000" fill-opacity="0.1"/>
<path d="M-3.16869 175.232C89.9778 270.227 800.548 143.999 468.561 143.999C-146.938 143.999 645.562 104.498 258.562 104.5C182.422 104.501 -96.3151 80.2369 -3.16869 175.232Z" fill="#F4D455" fill-opacity="0.2"/>
<path fill-rule="evenodd" clip-rule="evenodd" d="M58.4889 3.68427V135.255C59.4602 135.158 60.5099 135.106 61.6046 135.106C66.599 135.106 70.6476 136.201 70.6476 137.553C70.6476 138.904 66.599 140 61.6046 140C56.6102 140 52.5615 138.904 52.5615 137.553C52.5615 136.64 54.4076 135.845 57.1444 135.424V3.68427C56.5424 3.3894 56.121 2.71081 56.121 1.92072C56.121 0.859827 56.8801 0 57.8167 0C58.7532 0 59.5123 0.859827 59.5123 1.92072C59.5123 2.71081 59.0909 3.3894 58.4889 3.68427Z" fill="#201E15"/>
<path d="M59.5957 5.03832C69.4138 4.23126 73.0537 16.4673 84.0455 13.9542C77.1312 21.8699 64.9655 16.479 59.5957 23.0861V5.03832Z" fill="#014D4E"/>
</svg>
