<svg width="402" height="239" viewBox="0 0 402 239" fill="none" xmlns="http://www.w3.org/2000/svg">
<path d="M408 147.22C-276.5 54.7202 -663.8 -85.5804 -1183 147.22C-529 340 -442.5 172 408 147.22Z" fill="#014D4E"/>
<path d="M408 147.22C-276.5 54.7202 -663.8 -85.5804 -1183 147.22C-529 340 -442.5 172 408 147.22Z" fill="#008000" fill-opacity="0.1"/>
<path d="M408 147.22C-276.5 54.7202 -663.8 -85.5804 -1183 147.22C-529 340 -442.5 172 408 147.22Z" fill="#F4D455" fill-opacity="0.2"/>
<path fill-rule="evenodd" clip-rule="evenodd" d="M41.9274 3.68427V135.255C42.8987 135.158 43.9483 135.106 45.0431 135.106C50.0375 135.106 54.0861 136.201 54.0861 137.553C54.0861 138.904 50.0375 140 45.0431 140C40.0487 140 36 138.904 36 137.553C36 136.64 37.8461 135.845 40.5829 135.424V3.68427C39.9809 3.3894 39.5595 2.71081 39.5595 1.92072C39.5595 0.859827 40.3186 0 41.2551 0C42.1917 0 42.9508 0.859827 42.9508 1.92072C42.9508 2.71081 42.5294 3.3894 41.9274 3.68427Z" fill="#201E15"/>
<path d="M43.0342 5.03832C52.8523 4.23126 56.4922 16.4673 67.4839 13.9542C60.5697 21.8699 48.404 16.479 43.0342 23.0861V5.03832Z" fill="#014D4E"/>
</svg>
