<?xml version="1.0" encoding="UTF-8"?>
<svg version="1.1" xmlns="http://www.w3.org/2000/svg" width="1512" height="222">
<path d="M0 0 C9.26341921 0.6616728 18.20190791 1.47506129 27.3359375 2.8984375 C28.58374496 3.0887706 29.83155243 3.2791037 31.11717224 3.47520447 C34.49852671 3.99204884 37.87856995 4.51699867 41.25824356 5.04471207 C43.40149534 5.3791342 45.54500255 5.7118766 47.68856812 6.04428101 C121.79448312 17.54856206 195.54234383 31.2035785 554.0408268 119.63334084 C555.94369228 120.19354949 557.84702583 120.75216746 559.75036621 121.3107605 C562.05341617 121.98710412 564.35558811 122.66644923 566.65661621 123.34963989 C578.51884868 126.83024994 590.48095931 129.36906374 602.65966797 131.4609375 C603.97499074 131.68954272 605.29026116 131.91844939 606.60548401 132.14762878 C610.15628743 132.76531587 613.70787901 133.37834702 617.25969839 133.9901619 C620.28848877 134.51226699 623.31690281 135.03653833 626.34533513 135.56071568 C633.5733802 136.81167049 640.80210524 138.0586399 648.03125 139.30322266 C654.49073213 140.41536871 660.94938723 141.53216315 667.40722656 142.65380859 C702.30202139 148.71350547 737.21437952 154.61111075 772.21484375 160.03125 C772.93678342 160.14330402 773.6587231 160.25535805 774.40253973 160.37080765 C803.41591855 164.87354664 832.4868604 169.01600747 861.63174438 172.57867432 C865.09987772 173.01249343 868.5624591 173.48068635 872.02612305 173.94873047 C887.87520409 175.99258932 902.58201622 175.89431877 918.4375 174.125 C920.77695518 173.88360588 923.11655934 173.643652 925.45629883 173.4050293 C932.64394453 172.65694738 939.82240016 171.83844992 947 171 C948.11511963 170.87091248 949.23023926 170.74182495 950.37915039 170.60882568 C1016.42800188 162.92393476 1081.83424038 150.52491484 1146.60620117 135.58959961 C1147.37586212 135.41240891 1148.14552307 135.2352182 1148.93850708 135.05265808 C1150.35308017 134.7260203 1151.76716185 134.39724364 1153.18063354 134.06587219 C1157.78162897 133 1157.78162897 133 1160 133 C1159.67 93.4 1159.34 53.8 1159 13 C1160.32 13 1161.64 13 1163 13 C1163.09023437 13.63035156 1163.18046875 14.26070312 1163.2734375 14.91015625 C1163.51320313 15.59980469 1163.75296875 16.28945313 1164 17 C1165.92242217 17.76233983 1167.85284988 18.51128768 1169.8203125 19.1484375 C1172.06991571 20.02731474 1173.61070506 21.07370076 1175.5 22.5625 C1179.14497701 25.35726297 1182.51845207 26.13513987 1187 27 C1183.43419798 31.63457101 1179.38866912 32.16134664 1173.9375 33.1875 C1172.32140289 33.51327452 1170.70550846 33.84005652 1169.08984375 34.16796875 C1168.37691162 34.30485107 1167.66397949 34.4417334 1166.92944336 34.58276367 C1164.79698406 35.00735621 1164.79698406 35.00735621 1162 36 C1162 67.68 1162 99.36 1162 132 C1172.085625 129.586875 1182.17125 127.17375 1192.5625 124.6875 C1197.72132813 123.45362549 1197.72132813 123.45362549 1202.984375 122.19482422 C1218.87018081 118.39362295 1234.7531944 114.58143254 1250.62866402 110.73726845 C1330.36365218 91.43045712 1410.21607409 72.97237013 1491.17074585 59.47769165 C1493.17060847 59.14003458 1495.16870113 58.79181402 1497.16543579 58.43612671 C1498.73640518 58.16066513 1498.73640518 58.16066513 1500.33911133 57.87963867 C1501.28015213 57.71139084 1502.22119293 57.54314301 1503.19075012 57.36979675 C1506 57 1506 57 1512 57 C1512 83.4 1512 109.8 1512 137 C1483.22539032 141.60393755 1483.22539032 141.60393755 1473.89672852 142.94775391 C1472.79414168 143.10803479 1471.69155485 143.26831568 1470.5555563 143.43345356 C1466.99697959 143.94996796 1463.43798599 144.46352655 1459.87890625 144.9765625 C1458.62656189 145.15756563 1457.37421753 145.33856876 1456.08392334 145.52505684 C1446.57779327 146.89877879 1437.07048684 148.26419262 1427.5625 149.625 C1426.51281988 149.77527484 1426.51281988 149.77527484 1425.44193411 149.92858553 C1348.17177128 160.98866425 1270.82127463 170.87864705 1047.44140625 185.35424805 C1034.61698516 185.75702382 1021.80924149 186.25171717 1009 187 C1051.90497847 189.92078528 1094.80854561 192.36115868 1137.7855835 193.91939545 C1139.97379416 193.99904611 1142.16194858 194.08011456 1144.35009766 194.16143799 C1217.86380327 196.87562915 1291.44983631 196.20501471 1365 196 C1365 196.66 1365 197.32 1365 198 C1298.3184353 206.33697699 1231.55840131 213.73652053 1164.46105957 217.78710938 C1161.00947548 217.99941716 1157.55895921 218.22483556 1154.10839844 218.453125 C1076.40274368 223.51637932 996.93398927 224.28080371 919.27789307 218.25323486 C915.82698713 217.98663383 912.37529387 217.73262828 908.92333984 217.47998047 C814.83915319 210.51193508 722.17759402 194.39897622 629.52368164 177.2746582 C529.49674154 158.78776543 429.54837664 142.51051168 66 132 C66.33 131.34 66.66 130.68 67 130 C69.10150146 129.46492004 69.10150146 129.46492004 71.92871094 129.05786133 C72.99542526 128.90016266 74.06213959 128.74246399 75.16117859 128.57998657 C76.3403334 128.41566132 77.51948822 128.25133606 78.734375 128.08203125 C79.96529373 127.9040097 81.19621246 127.72598816 82.46443176 127.54257202 C85.84933733 127.05669965 89.23525241 126.57994873 92.62224197 126.10894394 C94.75213103 125.8122031 96.88158755 125.51252013 99.01095581 125.21206665 C143.88987426 118.88977881 188.93909784 113.53061028 234.14593506 110.21289062 C237.00251659 109.99981228 239.85791979 109.77446071 242.71337891 109.546875 C274.82982885 107.02966708 306.9084079 106.71031021 339.10663223 106.68992615 C342.31681175 106.68754319 345.52697678 106.68223 348.7371521 106.67663574 C376.54880934 106.64091624 404.23677539 107.34244122 432 109 C342.15736646 94.82901618 252.1853785 81.8053507 33.61450195 58.47387695 C32.73718383 58.39310504 31.8598657 58.31233313 30.95596218 58.22911358 C26.84884654 57.85114416 22.74157922 57.47506789 18.63389587 57.10331726 C17.18268422 56.97061654 15.7314765 56.83787274 14.28027344 56.70507812 C13.03614685 56.59232544 11.79202026 56.47957275 10.51019287 56.36340332 C6.99622226 55.9996089 3.49724594 55.49960656 0 55 C0 36.85 0 18.7 0 0 Z " fill="#075152" transform="translate(0,1)"/>
<path d="M0 0 C1.32 0 2.64 0 4 0 C4.09023437 0.63035156 4.18046875 1.26070312 4.2734375 1.91015625 C4.51320313 2.59980469 4.75296875 3.28945313 5 4 C6.92242217 4.76233983 8.85284988 5.51128768 10.8203125 6.1484375 C13.06991571 7.02731474 14.61070506 8.07370076 16.5 9.5625 C20.14497701 12.35726297 23.51845207 13.13513987 28 14 C24.43419798 18.63457101 20.38866912 19.16134664 14.9375 20.1875 C13.32140289 20.51327452 11.70550846 20.84005652 10.08984375 21.16796875 C9.37691162 21.30485107 8.66397949 21.4417334 7.92944336 21.58276367 C5.79698406 22.00735621 5.79698406 22.00735621 3 23 C3 54.68 3 86.36 3 119 C13.085625 116.586875 23.17125 114.17375 33.5625 111.6875 C38.72132813 110.45362549 38.72132813 110.45362549 43.984375 109.19482422 C59.87018081 105.39362295 75.7531944 101.58143254 91.62866402 97.73726845 C171.36365218 78.43045712 251.21607409 59.97237013 332.17074585 46.47769165 C334.17060847 46.14003458 336.16870113 45.79181402 338.16543579 45.43612671 C339.21274872 45.25248566 340.26006165 45.0688446 341.33911133 44.87963867 C342.28015213 44.71139084 343.22119293 44.54314301 344.19075012 44.36979675 C347 44 347 44 353 44 C353 70.4 353 96.8 353 124 C324.22539032 128.60393755 324.22539032 128.60393755 314.89672852 129.94775391 C313.79414168 130.10803479 312.69155485 130.26831568 311.5555563 130.43345356 C307.99697959 130.94996796 304.43798599 131.46352655 300.87890625 131.9765625 C299.62656189 132.15756563 298.37421753 132.33856876 297.08392334 132.52505684 C287.57779327 133.89877879 278.07048684 135.26419262 268.5625 136.625 C267.86271326 136.72518322 267.16292651 136.82536645 266.44193411 136.92858553 C189.17159511 147.98868947 111.820914 157.87876169 -141.56209183 173.36190605 C-143.36788914 173.41939503 -145.17367319 173.4773027 -146.9794426 173.5356617 C-171.04497502 174.30979174 -171.04497502 174.30979174 -178.8671875 173.5546875 C-180.52415649 173.39794556 -180.52415649 173.39794556 -182.21459961 173.23803711 C-183.42253174 173.11823486 -184.63046387 172.99843262 -185.875 172.875 C-187.83095093 172.68466187 -187.83095093 172.68466187 -189.82641602 172.49047852 C-192.09352438 172.26946335 -194.36050103 172.04726614 -196.62727356 171.8228302 C-203.19058253 171.17311751 -209.75595132 170.54663453 -216.32189941 169.92419434 C-221.11898536 169.4686144 -225.91530336 169.00517541 -230.71142197 168.53953171 C-234.17527088 168.20343928 -237.63935754 167.87045855 -241.10418701 167.5446167 C-245.0379506 167.17436096 -248.97015115 166.78894291 -252.90234375 166.40234375 C-254.71110741 166.23521629 -254.71110741 166.23521629 -256.55641174 166.06471252 C-257.65533249 165.95433151 -258.75425323 165.8439505 -259.88647461 165.73022461 C-260.853629 165.63712509 -261.82078339 165.54402557 -262.81724548 165.44810486 C-263.53755447 165.30023026 -264.25786346 165.15235565 -265 165 C-265.33 164.34 -265.66 163.68 -266 163 C-265.4411763 162.9529039 -264.8823526 162.9058078 -264.30659485 162.85728455 C-179.25808704 155.6538878 -95.56131196 141.76661711 -12.39379883 122.58959961 C-11.62413788 122.41240891 -10.85447693 122.2352182 -10.06149292 122.05265808 C-8.64691983 121.7260203 -7.23283815 121.39724364 -5.81936646 121.06587219 C-1.21837103 120 -1.21837103 120 1 120 C0.67 80.4 0.34 40.8 0 0 Z " fill="#357A3A" transform="translate(1159,14)"/>
<path d="M0 0 C9.26341921 0.6616728 18.20190791 1.47506129 27.3359375 2.8984375 C28.58374496 3.0887706 29.83155243 3.2791037 31.11717224 3.47520447 C34.49852671 3.99204884 37.87856995 4.51699867 41.25824356 5.04471207 C43.40149534 5.3791342 45.54500255 5.7118766 47.68856812 6.04428101 C121.79448312 17.54856206 195.54234383 31.2035785 573 125 C573 125.33 573 125.66 573 126 C562.66872809 126.61793769 552.78659527 124.9235741 542.6305542 123.29327393 C522.61342732 120.09129784 502.57599229 117.58170275 482.41259766 115.51098633 C481.47990051 115.41496628 480.54720337 115.31894623 479.58624268 115.22001648 C477.85098784 115.04266679 476.1154475 114.86807882 474.37957764 114.69685364 C470.52655081 114.30839373 466.79372952 113.79711614 463 113 C460.3309867 112.80310558 457.67193016 112.63310353 455 112.5 C450.57943081 112.27978714 446.34188202 111.88001294 442 111 C440.23022239 110.93540958 438.45829848 110.91388935 436.6875 110.9375 C435.36298828 110.95103516 435.36298828 110.95103516 434.01171875 110.96484375 C433.34785156 110.97644531 432.68398438 110.98804687 432 111 C432 110.34 432 109.68 432 109 C342.15736646 94.82901618 252.1853785 81.8053507 33.61450195 58.47387695 C32.73718383 58.39310504 31.8598657 58.31233313 30.95596218 58.22911358 C26.84884654 57.85114416 22.74157922 57.47506789 18.63389587 57.10331726 C17.18268422 56.97061654 15.7314765 56.83787274 14.28027344 56.70507812 C13.03614685 56.59232544 11.79202026 56.47957275 10.51019287 56.36340332 C6.99622226 55.9996089 3.49724594 55.49960656 0 55 C0 36.85 0 18.7 0 0 Z " fill="#377B3C" transform="translate(0,1)"/>
<path d="M0 0 C1.32 0 2.64 0 4 0 C4.09023437 0.63035156 4.18046875 1.26070312 4.2734375 1.91015625 C4.51320313 2.59980469 4.75296875 3.28945313 5 4 C6.92242217 4.76233983 8.85284988 5.51128768 10.8203125 6.1484375 C13.06991571 7.02731474 14.61070506 8.07370076 16.5 9.5625 C20.14497701 12.35726297 23.51845207 13.13513987 28 14 C24.43419798 18.63457101 20.38866912 19.16134664 14.9375 20.1875 C13.32140289 20.51327452 11.70550846 20.84005652 10.08984375 21.16796875 C9.02044556 21.37329224 9.02044556 21.37329224 7.92944336 21.58276367 C5.79698406 22.00735621 5.79698406 22.00735621 3 23 C3 54.68 3 86.36 3 119 C4.32 119.33 5.64 119.66 7 120 C4.36 120.33 1.72 120.66 -1 121 C-0.01 120.505 -0.01 120.505 1 120 C0.67 80.4 0.34 40.8 0 0 Z " fill="#6B9393" transform="translate(1159,14)"/>
<path d="M0 0 C4.34617892 0.10865447 6.92744104 1.4919997 10.375 3.9375 C14.55560548 6.89728351 17.9822777 8.08768686 23 9 C19.35335378 13.98794139 14.47149661 14.27237733 8.75 15.25 C7.81414062 15.42273437 6.87828125 15.59546875 5.9140625 15.7734375 C3.61153579 16.19635057 1.30738766 16.60462944 -1 17 C-1.02684679 14.35409986 -1.04676357 11.70846904 -1.0625 9.0625 C-1.07087891 8.30775391 -1.07925781 7.55300781 -1.08789062 6.77539062 C-1.09652441 4.85005687 -1.05224333 2.92464419 -1 1 C-0.67 0.67 -0.34 0.34 0 0 Z " fill="#CF292B" transform="translate(1164,19)"/>
<path d="M0 0 C0.66 0 1.32 0 2 0 C2 4.62 2 9.24 2 14 C4.24609375 13.90234375 6.4921875 13.8046875 8.73828125 13.70703125 C11.47851584 14.06198392 12.29171079 14.89366282 14 17 C10.64119635 19.23920243 9.48423396 19.24603334 5.5625 19.1875 C4.61503906 19.18105469 3.66757813 19.17460937 2.69140625 19.16796875 C0.3139406 19.01959281 -1.72379037 18.67263878 -4 18 C-3.505 16.515 -3.505 16.515 -3 15 C-2.34 14.67 -1.68 14.34 -1 14 C-0.52998967 10.72444392 -0.52998967 10.72444392 -0.375 6.9375 C-0.30023437 5.64714844 -0.22546875 4.35679687 -0.1484375 3.02734375 C-0.09945313 2.02832031 -0.05046875 1.02929688 0 0 Z " fill="#08544A" transform="translate(1160,135)"/>
</svg>
