<?xml version="1.0" encoding="UTF-8"?>
<svg version="1.1" xmlns="http://www.w3.org/2000/svg" width="402" height="264">
<path d="M0 0 C1.32 0 2.64 0 4 0 C4 1.65 4 3.3 4 5 C5.11375 5.185625 6.2275 5.37125 7.375 5.5625 C11.22652407 6.49147676 13.73412258 8.10955374 16.875 10.5 C21.72840401 14.12498033 26.02638729 15.3772191 32 16 C26.66818337 22.15209611 19.80747071 22.40733865 12.12109375 23.33984375 C8.59353706 24.08597276 6.75034195 24.64622588 4 27 C3.48484919 30.10542739 3.3089793 32.67412222 3.34057617 35.78588867 C3.33009247 36.68365524 3.31960876 37.58142181 3.30880737 38.50639343 C3.27997918 41.47726677 3.28635798 44.44698017 3.29296875 47.41796875 C3.27985843 49.47635871 3.26455626 51.53473579 3.24714661 53.59309387 C3.20720597 59.01336416 3.19710031 64.43329862 3.19311523 69.85369873 C3.18380088 75.38368985 3.14639803 80.91348222 3.11132812 86.44335938 C3.04665995 97.29556356 3.01349555 108.14762001 3 119 C32.53951779 112.26518993 61.94443014 105.06803192 91.3125 97.625 C92.67161625 97.28069191 92.67161625 97.28069191 94.05818939 96.9294281 C114.90566128 91.64707927 135.73597242 86.30801836 156.5322876 80.82745361 C209.36592383 66.91615374 262.69668499 54.98696438 316.5 45.5 C317.74558685 45.27977173 318.99117371 45.05954346 320.27450562 44.8326416 C323.83822765 44.20527006 327.40315847 43.58539911 330.96875 42.96875 C332.02214066 42.78378967 333.07553131 42.59882935 334.1608429 42.40826416 C335.16415146 42.23679871 336.16746002 42.06533325 337.20117188 41.88867188 C338.48888489 41.66624817 338.48888489 41.66624817 339.8026123 41.43933105 C344.51505603 40.79182657 349.26281458 40.43065322 354 40 C354 104.35 354 168.7 354 235 C303.04814969 239.09957416 252.13333343 243.1742342 201.14081192 246.63843918 C194.29527547 247.1041209 187.45017767 247.57619112 180.60504258 248.04772866 C168.17173709 248.90417521 155.73825055 249.75794491 143.30457008 250.60892951 C118.84500809 252.28301315 94.38635645 253.97014357 69.92837334 255.6671381 C62.69837481 256.16868925 55.46822565 256.66797882 48.23792839 257.16520405 C42.72750594 257.5445575 37.21725134 257.92631383 31.70703125 258.30859375 C30.66896709 258.38037779 29.63090294 258.45216183 28.56138229 258.52612114 C18.13723795 259.24896664 7.71791554 260.00227249 -2.69384766 260.88720703 C-3.95744787 260.99384407 -3.95744787 260.99384407 -5.24657536 261.10263538 C-9.08714187 261.4280989 -12.92654705 261.76200114 -16.76469421 262.11485291 C-27.30128175 263.03111395 -37.30422075 263 -48 263 C-48 219.11 -48 175.22 -48 130 C-31.70003408 126.50715016 -15.37558357 123.11915878 1 120 C0.67 80.4 0.34 40.8 0 0 Z " fill="#327837" transform="translate(48,1)"/>
<path d="M0 0 C11.29642265 0 22.44417431 0.09450967 33.70068359 0.70263672 C35.17198176 0.77860452 36.64330111 0.8541628 38.11463928 0.92935181 C42.05617305 1.13192467 45.99738783 1.34016621 49.93856382 1.54956961 C54.12151863 1.77083189 58.30474786 1.98678723 62.48794556 2.20339966 C69.52663063 2.56858893 76.56513374 2.93712031 83.60351562 3.30810547 C93.39715567 3.82431425 103.19109695 4.33460705 112.98511386 4.84360862 C169.26858226 7.77018438 169.26858226 7.77018438 196.6805706 9.32231712 C210.04095201 10.07565746 223.40612239 10.69866915 236.77587891 11.26177979 C239.62079755 11.38183015 242.46568495 11.50257515 245.31054688 11.6239624 C270.45866754 12.69442192 295.61118277 13.63719022 320.76625443 14.52812576 C323.44516443 14.62305682 326.12405677 14.71847503 328.802948 14.81393433 C353.19886548 15.68090165 377.59617374 16.39630455 402 17 C402 27.56 402 38.12 402 49 C349.61320954 53.42416407 297.19790508 57.32298831 244.75 60.9375 C243.98372646 60.99032938 243.21745292 61.04315875 242.42795897 61.09758902 C223.86218958 62.37756489 205.2959811 63.65109924 186.72959435 64.92208469 C163.79505844 66.4922543 140.86146002 68.0759471 117.92837334 69.6671381 C110.69837481 70.16868925 103.46822565 70.66797882 96.23792839 71.16520405 C90.72750594 71.5445575 85.21725134 71.92631383 79.70703125 72.30859375 C78.66896709 72.38037779 77.63090294 72.45216183 76.56138229 72.52612114 C66.13723795 73.24896664 55.71791554 74.00227249 45.30615234 74.88720703 C44.04255213 74.99384407 44.04255213 74.99384407 42.75342464 75.10263538 C38.91285813 75.4280989 35.07345295 75.76200114 31.23530579 76.11485291 C20.69871825 77.03111395 10.69577925 77 0 77 C0 51.59 0 26.18 0 0 Z " fill="#034E4F" transform="translate(0,187)"/>
<path d="M0 0 C8.84885496 2.21221374 8.84885496 2.21221374 12.875 5.5 C17.72840401 9.12498033 22.02638729 10.3772191 28 11 C23.43061047 16.27237253 18.13525663 17.12149287 11.4375 18.0625 C7.58404463 18.61169682 3.82201199 19.2355976 0 20 C0 13.4 0 6.8 0 0 Z " fill="#CF2B2D" transform="translate(52,6)"/>
<path d="M0 0 C1.32 0 2.64 0 4 0 C4 1.32 4 2.64 4 4 C3.34 4 2.68 4 2 4 C2.00515373 4.56833557 2.01030746 5.13667114 2.01561737 5.722229 C2.14245017 19.71999684 2.26764895 33.71777855 2.39115143 47.71557617 C2.45091977 54.48552147 2.51122601 61.25546107 2.57275391 68.02539062 C3.10239907 126.3781783 3.10239907 126.3781783 3 152 C4.98567708 151.96744792 6.97135417 151.93489583 8.95703125 151.90234375 C11.59587414 152.02848347 13.65126249 152.82563124 16 154 C16 154.66 16 155.32 16 156 C12.6042877 158.05701803 9.9382341 158.26969117 6 158.25 C4.453125 158.25773437 4.453125 158.25773437 2.875 158.265625 C0.05402722 158.00499165 -1.60145718 157.45296344 -4 156 C-3.67 155.01 -3.34 154.02 -3 153 C-1.68 153 -0.36 153 1 153 C0.67 102.51 0.34 52.02 0 0 Z " fill="#08534A" transform="translate(48,1)"/>
<path d="M0 0 C2.42684723 2.42684723 2.29564393 3.19809658 2.44921875 6.53515625 C2.49240234 7.42654297 2.53558594 8.31792969 2.58007812 9.23632812 C2.61552734 10.16896484 2.65097656 11.10160156 2.6875 12.0625 C2.73455078 12.99900391 2.78160156 13.93550781 2.83007812 14.90039062 C3.05559495 20.00594367 3.05559495 20.00594367 3 22 C2.67 22.33 2.34 22.66 2 23 C1.87474849 25.86012897 1.81390279 28.69728154 1.79467773 31.55883789 C1.78477814 32.45631241 1.77487854 33.35378693 1.76467896 34.27845764 C1.7329646 37.25982988 1.70826744 40.24121809 1.68359375 43.22265625 C1.66303279 45.28389411 1.64203656 47.34512766 1.62062073 49.40635681 C1.5653114 54.84299244 1.51594134 60.27966667 1.46777344 65.71636963 C1.41762294 71.25951592 1.36190328 76.80260586 1.30664062 82.34570312 C1.19895074 93.23042066 1.09752998 104.11518703 1 115 C2.32 115.33 3.64 115.66 5 116 C3.35 116 1.7 116 0 116 C0 77.72 0 39.44 0 0 Z " fill="#799C9D" transform="translate(50,5)"/>
<path d="M0 0 C1.32 0 2.64 0 4 0 C4 1.32 4 2.64 4 4 C3.34 4 2.68 4 2 4 C2.33 42.61 2.66 81.22 3 121 C2.34 121 1.68 121 1 121 C0.67 81.07 0.34 41.14 0 0 Z " fill="#256566" transform="translate(48,1)"/>
</svg>
