<svg width="164" height="216" viewBox="0 0 164 216" fill="none" xmlns="http://www.w3.org/2000/svg">
<path opacity="0.2" d="M-142.5 104.318C-886.248 75.7043 -973.8 -120.261 -1493 112.539C-73.3021 334.759 601.248 132.932 -142.5 104.318Z" fill="#919191"/>
<path fill-rule="evenodd" clip-rule="evenodd" d="M56.9274 23.6843V155.255C57.8987 155.158 58.9483 155.106 60.0431 155.106C65.0375 155.106 69.0861 156.201 69.0861 157.553C69.0861 158.904 65.0375 160 60.0431 160C55.0487 160 51 158.904 51 157.553C51 156.64 52.8461 155.845 55.5829 155.424V23.6843C54.9809 23.3894 54.5595 22.7108 54.5595 21.9207C54.5595 20.8598 55.3186 20 56.2551 20C57.1917 20 57.9508 20.8598 57.9508 21.9207C57.9508 22.7108 57.5294 23.3894 56.9274 23.6843Z" fill="#201E15"/>
<path d="M58.0342 25.0383C67.8523 24.2313 71.4922 36.4673 82.4839 33.9542C75.5697 41.8699 63.404 36.479 58.0342 43.0861V25.0383Z" fill="#014D4E"/>
</svg>
