<svg width="58" height="107" viewBox="0 0 58 107" fill="none" xmlns="http://www.w3.org/2000/svg">
<path d="M0 10L11 3V10H0Z" fill="#991011"/>
<g filter="url(#filter0_d_4001_1350)">
<path d="M8 6.00098C8 3.79184 9.79086 2.00098 12 2.00098H52C54.2091 2.00098 56 3.79184 56 6.00098V98.2639C56 99.8613 54.2197 100.814 52.8906 99.928L34.2188 87.4802C32.8752 86.5844 31.1248 86.5844 29.7812 87.4802L11.1094 99.928C9.78029 100.814 8 99.8613 8 98.2639V6.00098Z" fill="#014D4E"/>
<path d="M8 6.00098C8 3.79184 9.79086 2.00098 12 2.00098H52C54.2091 2.00098 56 3.79184 56 6.00098V98.2639C56 99.8613 54.2197 100.814 52.8906 99.928L34.2188 87.4802C32.8752 86.5844 31.1248 86.5844 29.7812 87.4802L11.1094 99.928C9.78029 100.814 8 99.8613 8 98.2639V6.00098Z" fill="#CB1517"/>
</g>
<path d="M27.0323 39.91L27.1283 39.718C28.2376 39.1634 29.2829 38.598 30.2643 38.022C31.2456 37.446 32.2163 36.6994 33.1763 35.782H33.4003L34.4243 36.07C34.4029 36.2407 34.3816 36.4434 34.3603 36.678C34.3603 36.8914 34.3496 37.1154 34.3283 37.35C34.3283 37.5847 34.3176 37.8087 34.2963 38.022C34.2963 38.2354 34.2963 38.406 34.2963 38.534C34.2749 38.8754 34.2536 39.1954 34.2323 39.494C34.2323 39.7927 34.2216 40.1447 34.2003 40.55C34.2003 40.9554 34.2003 41.446 34.2003 42.022C34.2003 42.598 34.2003 43.334 34.2003 44.23V48.102C34.2003 48.998 34.2003 49.734 34.2003 50.31C34.2003 50.8647 34.2003 51.334 34.2003 51.718C34.2216 52.102 34.2323 52.4434 34.2323 52.742C34.2536 53.0407 34.2856 53.3714 34.3283 53.734C34.3709 54.182 34.4669 54.5234 34.6163 54.758C34.7656 54.9714 34.9256 55.1527 35.0963 55.302C35.2883 55.4514 35.5869 55.5687 35.9923 55.654C36.3976 55.7394 36.7603 55.782 37.0803 55.782L37.2403 55.942L37.3043 56.998L37.2403 57.126C37.0909 57.126 36.8669 57.1154 36.5683 57.094C36.2696 57.0727 35.9496 57.0514 35.6083 57.03C35.2669 57.03 34.9469 57.0194 34.6483 56.998C34.3496 56.998 34.1256 56.998 33.9763 56.998H30.8723C30.7229 56.998 30.4989 56.998 30.2003 56.998C29.9016 57.0194 29.5816 57.03 29.2403 57.03C28.8989 57.0514 28.5789 57.0727 28.2803 57.094C27.9816 57.1154 27.7576 57.126 27.6083 57.126L27.5443 56.998L27.6083 55.91L27.7043 55.782C28.0456 55.782 28.4296 55.75 28.8563 55.686C29.3043 55.6007 29.6136 55.4727 29.7843 55.302C29.9549 55.1527 30.1149 54.9607 30.2643 54.726C30.4136 54.4914 30.5096 54.1607 30.5523 53.734C30.5736 53.4567 30.5949 53.19 30.6163 52.934C30.6376 52.6567 30.6483 52.3474 30.6483 52.006C30.6696 51.6434 30.6803 51.2167 30.6803 50.726C30.6803 50.2354 30.6803 49.6167 30.6803 48.87V44.294C30.6803 43.6967 30.6803 43.206 30.6803 42.822C30.6803 42.438 30.6696 42.118 30.6483 41.862C30.6483 41.606 30.6376 41.382 30.6163 41.19C30.5949 40.998 30.5736 40.7847 30.5523 40.55L27.1283 41.414L27.0323 41.286V39.91Z" fill="url(#paint0_linear_4001_1350)"/>
<path d="M27.0323 39.91L27.1283 39.718C28.2376 39.1634 29.2829 38.598 30.2643 38.022C31.2456 37.446 32.2163 36.6994 33.1763 35.782H33.4003L34.4243 36.07C34.4029 36.2407 34.3816 36.4434 34.3603 36.678C34.3603 36.8914 34.3496 37.1154 34.3283 37.35C34.3283 37.5847 34.3176 37.8087 34.2963 38.022C34.2963 38.2354 34.2963 38.406 34.2963 38.534C34.2749 38.8754 34.2536 39.1954 34.2323 39.494C34.2323 39.7927 34.2216 40.1447 34.2003 40.55C34.2003 40.9554 34.2003 41.446 34.2003 42.022C34.2003 42.598 34.2003 43.334 34.2003 44.23V48.102C34.2003 48.998 34.2003 49.734 34.2003 50.31C34.2003 50.8647 34.2003 51.334 34.2003 51.718C34.2216 52.102 34.2323 52.4434 34.2323 52.742C34.2536 53.0407 34.2856 53.3714 34.3283 53.734C34.3709 54.182 34.4669 54.5234 34.6163 54.758C34.7656 54.9714 34.9256 55.1527 35.0963 55.302C35.2883 55.4514 35.5869 55.5687 35.9923 55.654C36.3976 55.7394 36.7603 55.782 37.0803 55.782L37.2403 55.942L37.3043 56.998L37.2403 57.126C37.0909 57.126 36.8669 57.1154 36.5683 57.094C36.2696 57.0727 35.9496 57.0514 35.6083 57.03C35.2669 57.03 34.9469 57.0194 34.6483 56.998C34.3496 56.998 34.1256 56.998 33.9763 56.998H30.8723C30.7229 56.998 30.4989 56.998 30.2003 56.998C29.9016 57.0194 29.5816 57.03 29.2403 57.03C28.8989 57.0514 28.5789 57.0727 28.2803 57.094C27.9816 57.1154 27.7576 57.126 27.6083 57.126L27.5443 56.998L27.6083 55.91L27.7043 55.782C28.0456 55.782 28.4296 55.75 28.8563 55.686C29.3043 55.6007 29.6136 55.4727 29.7843 55.302C29.9549 55.1527 30.1149 54.9607 30.2643 54.726C30.4136 54.4914 30.5096 54.1607 30.5523 53.734C30.5736 53.4567 30.5949 53.19 30.6163 52.934C30.6376 52.6567 30.6483 52.3474 30.6483 52.006C30.6696 51.6434 30.6803 51.2167 30.6803 50.726C30.6803 50.2354 30.6803 49.6167 30.6803 48.87V44.294C30.6803 43.6967 30.6803 43.206 30.6803 42.822C30.6803 42.438 30.6696 42.118 30.6483 41.862C30.6483 41.606 30.6376 41.382 30.6163 41.19C30.5949 40.998 30.5736 40.7847 30.5523 40.55L27.1283 41.414L27.0323 41.286V39.91Z" fill="white" fill-opacity="0.2"/>
<defs>
<filter id="filter0_d_4001_1350" x="2" y="0.000976562" width="56" height="106.266" filterUnits="userSpaceOnUse" color-interpolation-filters="sRGB">
<feFlood flood-opacity="0" result="BackgroundImageFix"/>
<feColorMatrix in="SourceAlpha" type="matrix" values="0 0 0 0 0 0 0 0 0 0 0 0 0 0 0 0 0 0 127 0" result="hardAlpha"/>
<feOffset dx="-2" dy="2"/>
<feGaussianBlur stdDeviation="2"/>
<feComposite in2="hardAlpha" operator="out"/>
<feColorMatrix type="matrix" values="0 0 0 0 0 0 0 0 0 0 0 0 0 0 0 0 0 0 0.25 0"/>
<feBlend mode="normal" in2="BackgroundImageFix" result="effect1_dropShadow_4001_1350"/>
<feBlend mode="normal" in="SourceGraphic" in2="effect1_dropShadow_4001_1350" result="shape"/>
</filter>
<linearGradient id="paint0_linear_4001_1350" x1="43.9" y1="34.998" x2="34.695" y2="61.4802" gradientUnits="userSpaceOnUse">
<stop stop-color="#F4D455"/>
<stop offset="1" stop-color="white"/>
</linearGradient>
</defs>
</svg>
