<svg width="1222" height="269" viewBox="0 0 1222 269" fill="none" xmlns="http://www.w3.org/2000/svg">
<path d="M0 232.285C684.5 139.785 1082.8 35.4852 1602 268.285L0 232.285Z" fill="#014D4E"/>
<path d="M0 232.285C684.5 139.785 1082.8 35.4852 1602 268.285L0 232.285Z" fill="#008000" fill-opacity="0.1"/>
<path d="M0 232.285C684.5 139.785 1082.8 35.4852 1602 268.285L0 232.285Z" fill="#F4D455" fill-opacity="0.2"/>
<path d="M-290 179.67C232.369 72.6284 472.72 153.156 1222 207.101L-290 216.482C-290 203.959 -290 196.444 -290 179.67Z" fill="#014D4E" stroke="#014D4E"/>
<path fill-rule="evenodd" clip-rule="evenodd" d="M947.927 3.68427V135.255C948.899 135.158 949.948 135.106 951.043 135.106C956.037 135.106 960.086 136.201 960.086 137.553C960.086 138.904 956.037 140 951.043 140C946.049 140 942 138.904 942 137.553C942 136.64 943.846 135.845 946.583 135.424V3.68427C945.981 3.3894 945.559 2.71081 945.559 1.92072C945.559 0.859827 946.319 0 947.255 0C948.192 0 948.951 0.859827 948.951 1.92072C948.951 2.71081 948.529 3.3894 947.927 3.68427Z" fill="#201E15"/>
<path d="M949.034 5.03832C958.852 4.23126 962.492 16.4673 973.484 13.9542C966.57 21.8699 954.404 16.479 949.034 23.0861V5.03832Z" fill="#014D4E"/>
</svg>
