<svg width="402" height="253" viewBox="0 0 402 253" fill="none" xmlns="http://www.w3.org/2000/svg">
<path d="M-429 216.649C255.5 124.149 653.8 19.8494 1173 252.649L-429 216.649Z" fill="#014D4E"/>
<path d="M-429 216.649C255.5 124.149 653.8 19.8494 1173 252.649L-429 216.649Z" fill="#008000" fill-opacity="0.1"/>
<path d="M-429 216.649C255.5 124.149 653.8 19.8494 1173 252.649L-429 216.649Z" fill="#F4D455" fill-opacity="0.2"/>
<path fill-rule="evenodd" clip-rule="evenodd" d="M319.185 3.68427V135.255C320.156 135.158 321.206 135.106 322.301 135.106C327.295 135.106 331.344 136.201 331.344 137.553C331.344 138.904 327.295 140 322.301 140C317.306 140 313.258 138.904 313.258 137.553C313.258 136.64 315.104 135.845 317.841 135.424V3.68427C317.239 3.3894 316.817 2.71081 316.817 1.92072C316.817 0.859827 317.576 0 318.513 0C319.449 0 320.209 0.859827 320.209 1.92072C320.209 2.71081 319.787 3.3894 319.185 3.68427Z" fill="#201E15"/>
<path d="M320.292 5.03832C330.11 4.23126 333.75 16.4673 344.742 13.9542C337.827 21.8699 325.662 16.479 320.292 23.0861V5.03832Z" fill="#014D4E"/>
</svg>
