<svg width="329" height="194" viewBox="0 0 329 194" fill="none" xmlns="http://www.w3.org/2000/svg">
<path d="M31.4083 98.666C762.5 57.667 -80.9991 194.167 -117.498 200.667C-265.861 227.088 -699.683 139.665 31.4083 98.666Z" fill="#014D4E"/>
<path d="M31.4083 98.666C762.5 57.667 -80.9991 194.167 -117.498 200.667C-265.861 227.088 -699.683 139.665 31.4083 98.666Z" fill="#008000" fill-opacity="0.1"/>
<path d="M31.4083 98.666C762.5 57.667 -80.9991 194.167 -117.498 200.667C-265.861 227.088 -699.683 139.665 31.4083 98.666Z" fill="#F4D455" fill-opacity="0.2"/>
<path fill-rule="evenodd" clip-rule="evenodd" d="M106.927 3.68427V135.255C107.899 135.158 108.948 135.106 110.043 135.106C115.037 135.106 119.086 136.201 119.086 137.553C119.086 138.904 115.037 140 110.043 140C105.049 140 101 138.904 101 137.553C101 136.64 102.846 135.845 105.583 135.424V3.68427C104.981 3.3894 104.559 2.71081 104.559 1.92072C104.559 0.859827 105.319 0 106.255 0C107.192 0 107.951 0.859827 107.951 1.92072C107.951 2.71081 107.529 3.3894 106.927 3.68427Z" fill="#201E15"/>
<path d="M108.034 5.03832C117.852 4.23126 121.492 16.4673 132.484 13.9542C125.57 21.8699 113.404 16.479 108.034 23.0861V5.03832Z" fill="#014D4E"/>
</svg>
