<svg width="265" height="170" viewBox="0 0 265 170" fill="none" xmlns="http://www.w3.org/2000/svg">
<path opacity="0.2" d="M111.25 114.159C-260.624 99.8522 -304.4 1.86937 -564 118.269C145.849 229.38 483.124 128.466 111.25 114.159Z" fill="#919191"/>
<path fill-rule="evenodd" clip-rule="evenodd" d="M31.9274 3.68427V135.255C32.8987 135.158 33.9483 135.106 35.0431 135.106C40.0375 135.106 44.0861 136.201 44.0861 137.553C44.0861 138.904 40.0375 140 35.0431 140C30.0487 140 26 138.904 26 137.553C26 136.64 27.8461 135.845 30.5829 135.424V3.68427C29.9809 3.3894 29.5595 2.71081 29.5595 1.92072C29.5595 0.859827 30.3186 0 31.2551 0C32.1917 0 32.9508 0.859827 32.9508 1.92072C32.9508 2.71081 32.5294 3.3894 31.9274 3.68427Z" fill="#201E15"/>
<path d="M33.0342 5.03832C42.8523 4.23126 46.4922 16.4673 57.4839 13.9542C50.5697 21.8699 38.404 16.479 33.0342 23.0861V5.03832Z" fill="#014D4E"/>
</svg>
