<svg width="917" height="212" viewBox="0 0 917 212" fill="none" xmlns="http://www.w3.org/2000/svg">
<path opacity="0.2" d="M-498.691 94.1608C-803.365 65.0664 108.061 57.3264 851.809 85.9405C1175.38 98.389 164 98.5 520.5 158C1019 277.5 -109.111 156.655 -158.016 172.174C-290.016 214.062 -194.017 123.255 -498.691 94.1608Z" fill="#919191"/>
<path fill-rule="evenodd" clip-rule="evenodd" d="M334.927 3.68427V135.255C335.899 135.158 336.948 135.106 338.043 135.106C343.037 135.106 347.086 136.201 347.086 137.553C347.086 138.904 343.037 140 338.043 140C333.049 140 329 138.904 329 137.553C329 136.64 330.846 135.845 333.583 135.424V3.68427C332.981 3.3894 332.559 2.71081 332.559 1.92072C332.559 0.859827 333.319 0 334.255 0C335.192 0 335.951 0.859827 335.951 1.92072C335.951 2.71081 335.529 3.3894 334.927 3.68427Z" fill="#201E15"/>
<path d="M336.034 5.03832C345.852 4.23126 349.492 16.4673 360.484 13.9542C353.57 21.8699 341.404 16.479 336.034 23.0861V5.03832Z" fill="#014D4E"/>
</svg>
