<svg width="383" height="183" viewBox="0 0 383 183" fill="none" xmlns="http://www.w3.org/2000/svg">
<path opacity="0.2" d="M-305.845 124.081C-458.183 109.534 -23.3741 102.693 348.5 117C510.283 123.224 25.4999 126.251 203.75 156.001C453 215.751 -111.056 155.328 -135.508 163.088C-201.508 184.032 -153.508 138.628 -305.845 124.081Z" fill="#919191"/>
<path fill-rule="evenodd" clip-rule="evenodd" d="M54.9274 3.68427V135.255C55.8987 135.158 56.9483 135.106 58.0431 135.106C63.0375 135.106 67.0861 136.201 67.0861 137.553C67.0861 138.904 63.0375 140 58.0431 140C53.0487 140 49 138.904 49 137.553C49 136.64 50.8461 135.845 53.5829 135.424V3.68427C52.9809 3.3894 52.5595 2.71081 52.5595 1.92072C52.5595 0.859827 53.3186 0 54.2551 0C55.1917 0 55.9508 0.859827 55.9508 1.92072C55.9508 2.71081 55.5294 3.3894 54.9274 3.68427Z" fill="#201E15"/>
<path d="M56.0342 5.03832C65.8523 4.23126 69.4922 16.4673 80.4839 13.9542C73.5697 21.8699 61.404 16.479 56.0342 23.0861V5.03832Z" fill="#014D4E"/>
</svg>
