<svg width="522" height="216" viewBox="0 0 522 216" fill="none" xmlns="http://www.w3.org/2000/svg">
<path opacity="0.2" d="M215.5 104.318C-528.248 75.7043 -615.8 -120.261 -1135 112.539C284.698 334.759 959.248 132.932 215.5 104.318Z" fill="#919191"/>
<path fill-rule="evenodd" clip-rule="evenodd" d="M190.927 13.6843V145.255C191.899 145.158 192.948 145.106 194.043 145.106C199.037 145.106 203.086 146.201 203.086 147.553C203.086 148.904 199.037 150 194.043 150C189.049 150 185 148.904 185 147.553C185 146.64 186.846 145.845 189.583 145.424V13.6843C188.981 13.3894 188.559 12.7108 188.559 11.9207C188.559 10.8598 189.319 10 190.255 10C191.192 10 191.951 10.8598 191.951 11.9207C191.951 12.7108 191.529 13.3894 190.927 13.6843Z" fill="#201E15"/>
<path d="M192.034 15.0383C201.852 14.2313 205.492 26.4673 216.484 23.9542C209.57 31.8699 197.404 26.479 192.034 33.0861V15.0383Z" fill="#014D4E"/>
</svg>
