<svg width="402" height="202" viewBox="0 0 402 202" fill="none" xmlns="http://www.w3.org/2000/svg">
<path opacity="0.2" d="M-327.691 149.161C-632.365 120.066 279.061 112.326 1022.81 140.94C1536.81 160.715 -349.5 226.5 86.5 190.5C522.5 154.5 -23.0167 178.255 -327.691 149.161Z" fill="#919191"/>
<path fill-rule="evenodd" clip-rule="evenodd" d="M75.9274 3.68427V135.255C76.8987 135.158 77.9483 135.106 79.0431 135.106C84.0375 135.106 88.0861 136.201 88.0861 137.553C88.0861 138.904 84.0375 140 79.0431 140C74.0487 140 70 138.904 70 137.553C70 136.64 71.8461 135.845 74.5829 135.424V3.68427C73.9809 3.3894 73.5595 2.71081 73.5595 1.92072C73.5595 0.859827 74.3186 0 75.2551 0C76.1917 0 76.9508 0.859827 76.9508 1.92072C76.9508 2.71081 76.5294 3.3894 75.9274 3.68427Z" fill="#201E15"/>
<path d="M77.0342 5.03832C86.8523 4.23126 90.4922 16.4673 101.484 13.9542C94.5697 21.8699 82.404 16.479 77.0342 23.0861V5.03832Z" fill="#014D4E"/>
</svg>
