<svg width="252" height="169" viewBox="0 0 252 169" fill="none" xmlns="http://www.w3.org/2000/svg">
<path opacity="0.2" d="M30.1546 123.838C-122.183 109.29 333.531 105.42 705.405 119.727C962.405 129.615 266.492 141.9 200.492 162.844C134.492 183.788 182.492 138.385 30.1546 123.838Z" fill="#919191"/>
<path fill-rule="evenodd" clip-rule="evenodd" d="M206.927 3.68427V135.255C207.899 135.158 208.948 135.106 210.043 135.106C215.037 135.106 219.086 136.201 219.086 137.553C219.086 138.904 215.037 140 210.043 140C205.049 140 201 138.904 201 137.553C201 136.64 202.846 135.845 205.583 135.424V3.68427C204.981 3.3894 204.559 2.71081 204.559 1.92072C204.559 0.859827 205.319 0 206.255 0C207.192 0 207.951 0.859827 207.951 1.92072C207.951 2.71081 207.529 3.3894 206.927 3.68427Z" fill="#201E15"/>
<path d="M208.034 5.03832C217.852 4.23126 221.492 16.4673 232.484 13.9542C225.57 21.8699 213.404 16.479 208.034 23.0861V5.03832Z" fill="#014D4E"/>
</svg>