<svg width="863" height="180" viewBox="0 0 863 180" fill="none" xmlns="http://www.w3.org/2000/svg">
<path opacity="0.2" d="M60.3091 127.161C-244.365 98.0664 667.061 90.3264 1410.81 118.94C1924.81 138.715 38.5 204.5 474.5 168.5C910.5 132.5 364.983 156.255 60.3091 127.161Z" fill="#919191"/>
<path fill-rule="evenodd" clip-rule="evenodd" d="M724.927 3.68427V135.255C725.899 135.158 726.948 135.106 728.043 135.106C733.037 135.106 737.086 136.201 737.086 137.553C737.086 138.904 733.037 140 728.043 140C723.049 140 719 138.904 719 137.553C719 136.64 720.846 135.845 723.583 135.424V3.68427C722.981 3.3894 722.559 2.71081 722.559 1.92072C722.559 0.859827 723.319 0 724.255 0C725.192 0 725.951 0.859827 725.951 1.92072C725.951 2.71081 725.529 3.3894 724.927 3.68427Z" fill="#201E15"/>
<path d="M726.034 5.03832C735.852 4.23126 739.492 16.4673 750.484 13.9542C743.57 21.8699 731.404 16.479 726.034 23.0861V5.03832Z" fill="#014D4E"/>
</svg>
