<svg width="830" height="198" viewBox="0 0 830 198" fill="none" xmlns="http://www.w3.org/2000/svg">
<path opacity="0.2" d="M60.3092 108.16C-244.365 79.0652 667.061 71.3253 1410.81 99.9393C1924.81 119.714 532.984 144.285 400.984 186.173C268.984 228.061 364.983 137.254 60.3092 108.16Z" fill="#919191"/>
<path fill-rule="evenodd" clip-rule="evenodd" d="M358.927 3.68427V135.255C359.899 135.158 360.948 135.106 362.043 135.106C367.037 135.106 371.086 136.201 371.086 137.553C371.086 138.904 367.037 140 362.043 140C357.049 140 353 138.904 353 137.553C353 136.64 354.846 135.845 357.583 135.424V3.68427C356.981 3.3894 356.559 2.71081 356.559 1.92072C356.559 0.859827 357.319 0 358.255 0C359.192 0 359.951 0.859827 359.951 1.92072C359.951 2.71081 359.529 3.3894 358.927 3.68427Z" fill="#201E15"/>
<path d="M360.034 5.03832C369.852 4.23126 373.492 16.4673 384.484 13.9542C377.57 21.8699 365.404 16.479 360.034 23.0861V5.03832Z" fill="#014D4E"/>
</svg>
