<svg width="524" height="205" viewBox="0 0 524 205" fill="none" xmlns="http://www.w3.org/2000/svg">
<path d="M-35.7302 169.232C57.4162 264.227 767.986 137.999 436 137.999C-179.5 137.999 613 98.4984 226 98.5002C149.861 98.5005 -128.877 74.2369 -35.7302 169.232Z" fill="#014D4E"/>
<path d="M-35.7302 169.232C57.4162 264.227 767.986 137.999 436 137.999C-179.5 137.999 613 98.4984 226 98.5002C149.861 98.5005 -128.877 74.2369 -35.7302 169.232Z" fill="#008000" fill-opacity="0.1"/>
<path d="M-35.7302 169.232C57.4162 264.227 767.986 137.999 436 137.999C-179.5 137.999 613 98.4984 226 98.5002C149.861 98.5005 -128.877 74.2369 -35.7302 169.232Z" fill="#F4D455" fill-opacity="0.2"/>
<path fill-rule="evenodd" clip-rule="evenodd" d="M105.927 3.68427V135.255C106.899 135.158 107.948 135.106 109.043 135.106C114.037 135.106 118.086 136.201 118.086 137.553C118.086 138.904 114.037 140 109.043 140C104.049 140 100 138.904 100 137.553C100 136.64 101.846 135.845 104.583 135.424V3.68427C103.981 3.3894 103.559 2.71081 103.559 1.92072C103.559 0.859827 104.319 0 105.255 0C106.192 0 106.951 0.859827 106.951 1.92072C106.951 2.71081 106.529 3.3894 105.927 3.68427Z" fill="#201E15"/>
<path d="M107.034 5.03832C116.852 4.23126 120.492 16.4673 131.484 13.9542C124.57 21.8699 112.404 16.479 107.034 23.0861V5.03832Z" fill="#014D4E"/>
</svg>
