<svg width="1512" height="295" viewBox="0 0 1512 295" fill="none" xmlns="http://www.w3.org/2000/svg">
<path opacity="0.2" d="M130.5 104.318C-613.248 75.7043 -700.8 -120.261 -1220 112.539C199.698 334.759 874.248 132.932 130.5 104.318Z" fill="#919191"/>
<path fill-rule="evenodd" clip-rule="evenodd" d="M1065.93 98.6843V230.255C1066.9 230.158 1067.95 230.106 1069.04 230.106C1074.04 230.106 1078.09 231.201 1078.09 232.553C1078.09 233.904 1074.04 235 1069.04 235C1064.05 235 1060 233.904 1060 232.553C1060 231.64 1061.85 230.845 1064.58 230.424V98.6843C1063.98 98.3894 1063.56 97.7108 1063.56 96.9207C1063.56 95.8598 1064.32 95 1065.26 95C1066.19 95 1066.95 95.8598 1066.95 96.9207C1066.95 97.7108 1066.53 98.3894 1065.93 98.6843Z" fill="#201E15"/>
<path d="M1067.03 100.038C1076.85 99.2313 1080.49 111.467 1091.48 108.954C1084.57 116.87 1072.4 111.479 1067.03 118.086V100.038Z" fill="#014D4E"/>
<path opacity="0.2" d="M655.309 242.16C350.635 213.065 1262.06 205.325 2005.81 233.939C2519.81 253.714 633.5 319.499 1069.5 283.499C1505.5 247.499 959.983 271.254 655.309 242.16Z" fill="#919191"/>
</svg>
